<svg xmlns="http://www.w3.org/2000/svg" xmlns:xlink="http://www.w3.org/1999/xlink" width="512" zoomAndPan="magnify" viewBox="0 0 384 383.999986" height="512" preserveAspectRatio="xMidYMid meet" version="1.0"><defs><clipPath id="f743f986f2"><path d="M 48.675781 49.210938 L 236 49.210938 L 236 334.960938 L 48.675781 334.960938 Z M 48.675781 49.210938 " clip-rule="nonzero"/></clipPath></defs><path fill="#765afd" d="M 329.582031 181.566406 L 273.945312 125.929688 C 273.257812 125.246094 272.511719 124.632812 271.707031 124.09375 C 270.902344 123.558594 270.050781 123.101562 269.15625 122.730469 C 268.261719 122.363281 267.339844 122.082031 266.390625 121.890625 C 265.4375 121.703125 264.480469 121.609375 263.511719 121.609375 C 262.542969 121.609375 261.582031 121.703125 260.632812 121.890625 C 259.683594 122.082031 258.761719 122.363281 257.867188 122.730469 C 256.96875 123.101562 256.121094 123.558594 255.316406 124.09375 C 254.507812 124.632812 253.765625 125.246094 253.078125 125.929688 C 252.394531 126.617188 251.78125 127.359375 251.246094 128.167969 C 250.707031 128.972656 250.25 129.820312 249.882812 130.714844 C 249.511719 131.613281 249.230469 132.535156 249.042969 133.484375 C 248.851562 134.433594 248.757812 135.394531 248.757812 136.363281 C 248.757812 137.332031 248.851562 138.289062 249.042969 139.242188 C 249.230469 140.191406 249.511719 141.113281 249.882812 142.007812 C 250.25 142.902344 250.707031 143.753906 251.246094 144.558594 C 251.78125 145.363281 252.394531 146.109375 253.078125 146.792969 L 283.53125 177.246094 L 122.441406 177.246094 C 121.472656 177.246094 120.511719 177.339844 119.5625 177.53125 C 118.613281 177.71875 117.691406 178 116.796875 178.371094 C 115.898438 178.742188 115.050781 179.195312 114.246094 179.734375 C 113.4375 180.269531 112.695312 180.882812 112.007812 181.566406 C 111.324219 182.253906 110.710938 182.996094 110.175781 183.804688 C 109.636719 184.609375 109.179688 185.460938 108.8125 186.355469 C 108.441406 187.25 108.160156 188.171875 107.972656 189.121094 C 107.78125 190.070312 107.6875 191.03125 107.6875 192 C 107.6875 192.96875 107.78125 193.929688 107.972656 194.878906 C 108.160156 195.828125 108.441406 196.75 108.8125 197.644531 C 109.179688 198.539062 109.636719 199.390625 110.175781 200.195312 C 110.710938 201 111.324219 201.746094 112.007812 202.433594 C 112.695312 203.117188 113.4375 203.726562 114.246094 204.265625 C 115.050781 204.804688 115.898438 205.257812 116.796875 205.628906 C 117.691406 206 118.613281 206.28125 119.5625 206.46875 C 120.511719 206.660156 121.472656 206.753906 122.441406 206.753906 L 283.53125 206.753906 L 253.078125 237.207031 C 252.394531 237.890625 251.78125 238.636719 251.246094 239.441406 C 250.707031 240.246094 250.25 241.097656 249.882812 241.992188 C 249.511719 242.886719 249.230469 243.808594 249.042969 244.757812 C 248.851562 245.710938 248.757812 246.667969 248.757812 247.636719 C 248.757812 248.605469 248.851562 249.566406 249.042969 250.515625 C 249.230469 251.464844 249.511719 252.386719 249.882812 253.28125 C 250.25 254.179688 250.707031 255.027344 251.246094 255.832031 C 251.78125 256.640625 252.394531 257.382812 253.078125 258.070312 C 253.765625 258.753906 254.507812 259.367188 255.316406 259.902344 C 256.121094 260.441406 256.96875 260.898438 257.867188 261.265625 C 258.761719 261.636719 259.683594 261.917969 260.632812 262.105469 C 261.582031 262.296875 262.542969 262.390625 263.511719 262.390625 C 264.480469 262.390625 265.441406 262.296875 266.390625 262.105469 C 267.339844 261.917969 268.261719 261.636719 269.15625 261.265625 C 270.050781 260.898438 270.902344 260.441406 271.707031 259.902344 C 272.511719 259.367188 273.257812 258.753906 273.945312 258.070312 L 329.582031 202.429688 C 330.265625 201.746094 330.878906 201 331.414062 200.195312 C 331.953125 199.390625 332.410156 198.539062 332.777344 197.644531 C 333.148438 196.75 333.429688 195.828125 333.617188 194.878906 C 333.808594 193.925781 333.902344 192.96875 333.902344 192 C 333.902344 191.03125 333.808594 190.070312 333.617188 189.121094 C 333.429688 188.171875 333.148438 187.25 332.777344 186.355469 C 332.410156 185.457031 331.953125 184.609375 331.414062 183.804688 C 330.878906 182.996094 330.265625 182.253906 329.582031 181.566406 Z M 329.582031 181.566406 " fill-opacity="1" fill-rule="nonzero"/><g clip-path="url(#f743f986f2)"><path fill="#765afd" d="M 220.792969 275.601562 C 219.824219 275.601562 218.867188 275.695312 217.917969 275.882812 C 216.964844 276.074219 216.042969 276.351562 215.148438 276.722656 C 214.253906 277.09375 213.402344 277.550781 212.597656 278.085938 C 211.792969 278.625 211.046875 279.238281 210.363281 279.921875 C 209.679688 280.605469 209.066406 281.351562 208.527344 282.15625 C 207.988281 282.960938 207.535156 283.8125 207.164062 284.707031 C 206.792969 285.601562 206.515625 286.527344 206.324219 287.476562 C 206.136719 288.425781 206.042969 289.386719 206.042969 290.355469 L 206.042969 305.105469 L 78.179688 305.105469 L 78.179688 78.894531 L 206.042969 78.894531 L 206.042969 93.644531 C 206.042969 94.613281 206.136719 95.574219 206.324219 96.523438 C 206.515625 97.472656 206.792969 98.398438 207.164062 99.292969 C 207.535156 100.1875 207.988281 101.035156 208.527344 101.84375 C 209.066406 102.648438 209.679688 103.394531 210.363281 104.078125 C 211.046875 104.761719 211.792969 105.375 212.597656 105.914062 C 213.402344 106.449219 214.253906 106.90625 215.148438 107.277344 C 216.042969 107.648438 216.964844 107.925781 217.917969 108.117188 C 218.867188 108.304688 219.824219 108.398438 220.792969 108.398438 C 221.761719 108.398438 222.722656 108.304688 223.671875 108.117188 C 224.625 107.925781 225.546875 107.648438 226.441406 107.277344 C 227.335938 106.90625 228.1875 106.449219 228.992188 105.914062 C 229.796875 105.375 230.542969 104.761719 231.226562 104.078125 C 231.910156 103.394531 232.523438 102.648438 233.0625 101.84375 C 233.601562 101.035156 234.054688 100.1875 234.425781 99.292969 C 234.796875 98.398438 235.074219 97.472656 235.265625 96.523438 C 235.453125 95.574219 235.546875 94.613281 235.546875 93.644531 L 235.546875 73.976562 C 235.546875 73.167969 235.507812 72.367188 235.429688 71.566406 C 235.351562 70.761719 235.234375 69.96875 235.074219 69.179688 C 234.917969 68.386719 234.722656 67.609375 234.488281 66.835938 C 234.253906 66.066406 233.984375 65.308594 233.675781 64.566406 C 233.367188 63.820312 233.023438 63.09375 232.644531 62.382812 C 232.265625 61.671875 231.851562 60.984375 231.402344 60.3125 C 230.957031 59.644531 230.476562 59 229.964844 58.375 C 229.457031 57.753906 228.914062 57.15625 228.347656 56.589844 C 227.777344 56.019531 227.179688 55.480469 226.558594 54.96875 C 225.9375 54.457031 225.289062 53.976562 224.621094 53.53125 C 223.949219 53.082031 223.261719 52.667969 222.550781 52.289062 C 221.839844 51.910156 221.113281 51.566406 220.367188 51.257812 C 219.625 50.949219 218.867188 50.679688 218.097656 50.445312 C 217.328125 50.210938 216.546875 50.015625 215.757812 49.859375 C 214.964844 49.703125 214.171875 49.582031 213.371094 49.503906 C 212.566406 49.425781 211.765625 49.386719 210.960938 49.386719 L 73.265625 49.386719 C 72.457031 49.386719 71.65625 49.425781 70.855469 49.503906 C 70.050781 49.582031 69.257812 49.703125 68.464844 49.859375 C 67.675781 50.015625 66.898438 50.210938 66.125 50.445312 C 65.355469 50.679688 64.597656 50.949219 63.855469 51.257812 C 63.109375 51.566406 62.382812 51.910156 61.671875 52.289062 C 60.960938 52.667969 60.273438 53.082031 59.601562 53.53125 C 58.933594 53.976562 58.289062 54.457031 57.664062 54.96875 C 57.042969 55.480469 56.445312 56.019531 55.878906 56.589844 C 55.308594 57.15625 54.765625 57.753906 54.257812 58.375 C 53.746094 59 53.265625 59.644531 52.820312 60.3125 C 52.371094 60.984375 51.957031 61.671875 51.578125 62.382812 C 51.199219 63.09375 50.855469 63.820312 50.546875 64.566406 C 50.238281 65.308594 49.96875 66.066406 49.734375 66.835938 C 49.5 67.609375 49.304688 68.386719 49.148438 69.179688 C 48.992188 69.96875 48.871094 70.761719 48.792969 71.566406 C 48.714844 72.367188 48.675781 73.167969 48.675781 73.976562 L 48.675781 310.023438 C 48.675781 310.828125 48.714844 311.632812 48.792969 312.433594 C 48.871094 313.234375 48.992188 314.03125 49.148438 314.820312 C 49.304688 315.613281 49.5 316.390625 49.734375 317.164062 C 49.96875 317.933594 50.238281 318.691406 50.546875 319.433594 C 50.855469 320.179688 51.199219 320.90625 51.578125 321.617188 C 51.957031 322.324219 52.371094 323.015625 52.820312 323.683594 C 53.265625 324.355469 53.746094 325 54.257812 325.625 C 54.765625 326.246094 55.308594 326.84375 55.878906 327.410156 C 56.445312 327.980469 57.042969 328.519531 57.664062 329.03125 C 58.289062 329.542969 58.933594 330.023438 59.601562 330.46875 C 60.273438 330.917969 60.960938 331.332031 61.671875 331.710938 C 62.382812 332.089844 63.109375 332.433594 63.855469 332.742188 C 64.597656 333.050781 65.355469 333.320312 66.125 333.554688 C 66.898438 333.789062 67.675781 333.984375 68.464844 334.140625 C 69.257812 334.296875 70.050781 334.414062 70.855469 334.496094 C 71.65625 334.574219 72.457031 334.613281 73.265625 334.613281 L 210.960938 334.613281 C 211.765625 334.613281 212.566406 334.574219 213.371094 334.496094 C 214.171875 334.414062 214.964844 334.296875 215.757812 334.140625 C 216.546875 333.984375 217.328125 333.789062 218.097656 333.554688 C 218.867188 333.320312 219.625 333.050781 220.367188 332.742188 C 221.113281 332.433594 221.839844 332.089844 222.550781 331.710938 C 223.261719 331.332031 223.949219 330.917969 224.621094 330.46875 C 225.289062 330.023438 225.9375 329.542969 226.558594 329.03125 C 227.179688 328.519531 227.777344 327.980469 228.347656 327.410156 C 228.914062 326.84375 229.457031 326.246094 229.964844 325.625 C 230.476562 325 230.957031 324.355469 231.402344 323.683594 C 231.851562 323.015625 232.265625 322.324219 232.644531 321.617188 C 233.023438 320.90625 233.367188 320.179688 233.675781 319.433594 C 233.984375 318.691406 234.253906 317.933594 234.488281 317.164062 C 234.722656 316.390625 234.917969 315.613281 235.074219 314.820312 C 235.234375 314.03125 235.351562 313.234375 235.429688 312.433594 C 235.507812 311.632812 235.546875 310.828125 235.546875 310.023438 L 235.546875 290.355469 C 235.546875 289.386719 235.453125 288.425781 235.265625 287.476562 C 235.074219 286.527344 234.796875 285.601562 234.425781 284.707031 C 234.054688 283.8125 233.601562 282.960938 233.0625 282.15625 C 232.523438 281.351562 231.910156 280.605469 231.226562 279.921875 C 230.542969 279.238281 229.796875 278.625 228.992188 278.085938 C 228.1875 277.550781 227.335938 277.09375 226.441406 276.722656 C 225.546875 276.351562 224.625 276.074219 223.671875 275.882812 C 222.722656 275.695312 221.761719 275.601562 220.792969 275.601562 Z M 220.792969 275.601562 " fill-opacity="1" fill-rule="nonzero"/></g></svg>