<svg xmlns="http://www.w3.org/2000/svg" xmlns:xlink="http://www.w3.org/1999/xlink" width="512" zoomAndPan="magnify" viewBox="0 0 384 383.999986" height="512" preserveAspectRatio="xMidYMid meet" version="1.0"><defs><clipPath id="4f770abbc6"><path d="M 215 238 L 319.5 238 L 319.5 342 L 215 342 Z M 215 238 " clip-rule="nonzero"/></clipPath><clipPath id="8a6152cb45"><path d="M 64.5 66 L 280 66 L 280 309 L 64.5 309 Z M 64.5 66 " clip-rule="nonzero"/></clipPath></defs><g clip-path="url(#4f770abbc6)"><path fill="#765afd" d="M 215.859375 290.257812 C 215.859375 318.824219 239.035156 342 267.605469 342 C 296.171875 342 319.347656 318.824219 319.347656 290.257812 C 319.347656 261.6875 296.171875 238.511719 267.605469 238.511719 C 238.957031 238.511719 215.859375 261.6875 215.859375 290.257812 Z M 297.378906 268.125 C 301.5625 272.3125 301.5625 278.992188 297.378906 283.175781 L 268.246094 312.304688 C 266.234375 314.316406 263.578125 315.445312 260.761719 315.445312 C 257.945312 315.445312 255.210938 314.316406 253.199219 312.304688 L 237.75 296.855469 C 235.738281 294.84375 234.609375 292.1875 234.609375 289.371094 C 234.609375 286.554688 235.738281 283.820312 237.75 281.808594 C 239.839844 279.714844 242.578125 278.667969 245.3125 278.667969 C 248.046875 278.667969 250.785156 279.714844 252.796875 281.808594 L 260.683594 289.691406 L 282.328125 268.046875 C 286.433594 264.023438 293.195312 264.023438 297.378906 268.125 Z M 297.378906 268.125 " fill-opacity="1" fill-rule="nonzero"/></g><path fill="#765afd" d="M 118.648438 42 C 110.761719 42 104.40625 48.355469 104.40625 56.242188 L 104.40625 71.453125 C 104.40625 79.339844 110.761719 85.695312 118.648438 85.695312 C 126.535156 85.695312 132.894531 79.339844 132.894531 71.453125 L 132.894531 56.242188 C 132.894531 48.4375 126.457031 42 118.648438 42 Z M 118.648438 42 " fill-opacity="1" fill-rule="nonzero"/><path fill="#765afd" d="M 225.757812 42 C 217.871094 42 211.515625 48.355469 211.515625 56.242188 L 211.515625 71.453125 C 211.515625 79.339844 217.871094 85.695312 225.757812 85.695312 C 233.644531 85.695312 240 79.339844 240 71.453125 L 240 56.242188 C 240 48.4375 233.644531 42 225.757812 42 Z M 225.757812 42 " fill-opacity="1" fill-rule="nonzero"/><g clip-path="url(#8a6152cb45)"><path fill="#765afd" d="M 261.40625 66.0625 L 252.074219 66.0625 L 252.074219 71.453125 C 252.074219 85.9375 240.242188 97.765625 225.757812 97.765625 C 211.273438 97.765625 199.445312 85.9375 199.445312 71.453125 L 199.445312 66.0625 L 144.964844 66.0625 L 144.964844 71.453125 C 144.964844 85.9375 133.132812 97.765625 118.648438 97.765625 C 104.164062 97.765625 92.335938 85.9375 92.335938 71.453125 L 92.335938 66.0625 L 83 66.0625 C 72.859375 66.0625 64.652344 74.269531 64.652344 84.328125 L 64.652344 290.257812 C 64.652344 300.394531 72.859375 308.523438 83 308.523438 L 206.445312 308.523438 C 204.675781 302.730469 203.789062 296.613281 203.789062 290.257812 C 203.789062 288.246094 203.871094 286.234375 204.109375 284.140625 L 89.035156 284.140625 L 89.035156 125.128906 L 255.292969 125.128906 L 255.292969 227.570312 C 259.234375 226.765625 263.339844 226.441406 267.441406 226.441406 C 271.628906 226.441406 275.730469 226.84375 279.675781 227.648438 L 279.675781 84.328125 C 279.753906 74.269531 271.546875 66.0625 261.40625 66.0625 Z M 261.40625 66.0625 " fill-opacity="1" fill-rule="nonzero"/></g><path fill="#765afd" d="M 181.417969 143.3125 L 162.988281 143.3125 C 159.609375 143.3125 156.875 146.050781 156.875 149.429688 L 156.875 167.859375 C 156.875 171.238281 159.609375 173.972656 162.988281 173.972656 L 181.417969 173.972656 C 184.796875 173.972656 187.535156 171.238281 187.535156 167.859375 L 187.535156 149.429688 C 187.535156 146.050781 184.796875 143.3125 181.417969 143.3125 Z M 181.417969 143.3125 " fill-opacity="1" fill-rule="nonzero"/><path fill="#765afd" d="M 230.507812 143.3125 L 212.078125 143.3125 C 208.699219 143.3125 205.960938 146.050781 205.960938 149.429688 L 205.960938 167.859375 C 205.960938 171.238281 208.699219 173.972656 212.078125 173.972656 L 230.507812 173.972656 C 233.886719 173.972656 236.621094 171.238281 236.621094 167.859375 L 236.621094 149.429688 C 236.621094 146.050781 233.886719 143.3125 230.507812 143.3125 Z M 230.507812 143.3125 " fill-opacity="1" fill-rule="nonzero"/><path fill="#765afd" d="M 132.328125 189.34375 L 113.902344 189.34375 C 110.523438 189.34375 107.785156 192.082031 107.785156 195.460938 L 107.785156 213.886719 C 107.785156 217.269531 110.523438 220.003906 113.902344 220.003906 L 132.328125 220.003906 C 135.710938 220.003906 138.445312 217.269531 138.445312 213.886719 L 138.445312 195.460938 C 138.445312 192.082031 135.710938 189.34375 132.328125 189.34375 Z M 132.328125 189.34375 " fill-opacity="1" fill-rule="nonzero"/><path fill="#765afd" d="M 181.417969 189.34375 L 162.988281 189.34375 C 159.609375 189.34375 156.875 192.082031 156.875 195.460938 L 156.875 213.886719 C 156.875 217.269531 159.609375 220.003906 162.988281 220.003906 L 181.417969 220.003906 C 184.796875 220.003906 187.535156 217.269531 187.535156 213.886719 L 187.535156 195.460938 C 187.535156 192.082031 184.796875 189.34375 181.417969 189.34375 Z M 181.417969 189.34375 " fill-opacity="1" fill-rule="nonzero"/><path fill="#765afd" d="M 230.507812 189.34375 L 212.078125 189.34375 C 208.699219 189.34375 205.960938 192.082031 205.960938 195.460938 L 205.960938 213.886719 C 205.960938 217.269531 208.699219 220.003906 212.078125 220.003906 L 230.507812 220.003906 C 233.886719 220.003906 236.621094 217.269531 236.621094 213.886719 L 236.621094 195.460938 C 236.621094 192.082031 233.886719 189.34375 230.507812 189.34375 Z M 230.507812 189.34375 " fill-opacity="1" fill-rule="nonzero"/><path fill="#765afd" d="M 132.328125 235.292969 L 113.902344 235.292969 C 110.523438 235.292969 107.785156 238.03125 107.785156 241.410156 L 107.785156 259.839844 C 107.785156 263.21875 110.523438 265.953125 113.902344 265.953125 L 132.328125 265.953125 C 135.710938 265.953125 138.445312 263.21875 138.445312 259.839844 L 138.445312 241.410156 C 138.445312 238.03125 135.710938 235.292969 132.328125 235.292969 Z M 132.328125 235.292969 " fill-opacity="1" fill-rule="nonzero"/><path fill="#765afd" d="M 181.417969 235.292969 L 162.988281 235.292969 C 159.609375 235.292969 156.875 238.03125 156.875 241.410156 L 156.875 259.839844 C 156.875 263.21875 159.609375 265.953125 162.988281 265.953125 L 181.417969 265.953125 C 184.796875 265.953125 187.535156 263.21875 187.535156 259.839844 L 187.535156 241.410156 C 187.535156 238.03125 184.796875 235.292969 181.417969 235.292969 Z M 181.417969 235.292969 " fill-opacity="1" fill-rule="nonzero"/></svg>