<?xml version="1.0" encoding="utf-8"?>
<!-- Generator: Adobe Illustrator 25.4.1, SVG Export Plug-In . SVG Version: 6.00 Build 0)  -->
<svg version="1.1" id="Layer_1" xmlns="http://www.w3.org/2000/svg" xmlns:xlink="http://www.w3.org/1999/xlink" x="0px" y="0px"
	 viewBox="0 0 570.4 75.7" style="enable-background:new 0 0 570.4 75.7;" xml:space="preserve">
<style type="text/css">
	.st0{fill:#12123D;}
	.st1{fill:#785EFF;}
	.st2{fill-rule:evenodd;clip-rule:evenodd;fill:#EF7C23;}
	.st3{fill:#EE1A26;}
	.st4{fill:#FED106;}
</style>
<g>
	<g>
		<g>
			<g>
				<g>
					<g>
						<g>
							<g>
								<g>
									<path class="st0" d="M84,24.1c1.7-0.4,2.7-1.9,2.7-3.6c0-2.2-1.7-3.8-4-3.8h-6.5V18h6.4c1.6,0,2.7,1,2.7,2.5
										c0,1.5-1.1,2.5-2.7,2.5h-2.9c-0.3,0-0.7,0.3-0.7,0.7c0,0.3,0.3,0.7,0.7,0.7h2.8l3.5,5.3h1.6L84,24.1L84,24.1z"/>
									<path class="st0" d="M77,19.4c-0.3,0-0.7,0.3-0.7,0.7v9.4h1.3v-9.4C77.6,19.7,77.3,19.4,77,19.4z"/>
								</g>
								<g>
									<path class="st0" d="M37.6,25.9l-0.1-0.2l-0.2,0.2c-0.9,1.5-2.6,2.2-4.3,2.2c-2.5,0-4.6-1.8-5-4.3v-0.1h-1.3V24
										c0.4,3.1,3.1,5.5,6.3,5.5c2,0,3.8-0.9,5-2.6l0.1-0.1l0.1,0C37.9,26.4,37.7,26.2,37.6,25.9z"/>
									<path class="st0" d="M33.1,16.7c-3.1,0-5.8,2.4-6.3,5.5v0.2H28v-0.1c0.4-2.5,2.6-4.3,5-4.3c1.7,0,3.2,0.9,4.3,2.2l0.1,0.2
										l0.1-0.2c0.1-0.3,0.3-0.6,0.6-0.9l0.1-0.1l-0.1-0.1C36.9,17.6,35,16.7,33.1,16.7z"/>
								</g>
								<g>
									<path class="st0" d="M50.4,16.7h-0.2V18h0.1c2.5,0.4,4.3,2.6,4.3,5s-1.8,4.6-4.3,5h-0.1v1.3h0.2c3.1-0.4,5.5-3.1,5.5-6.3
										S53.6,17.2,50.4,16.7z"/>
									<path class="st0" d="M43.2,23c0,3.1,2.4,5.8,5.5,6.3h0.2v-1.3h-0.1c-2.5-0.4-4.3-2.6-4.3-5s1.8-4.6,4.3-5h0.1v-1.3h-0.2
										C45.5,17.2,43.2,19.8,43.2,23z"/>
								</g>
								<g>
									<path class="st0" d="M64.9,19.4c-0.3,0-0.7,0.3-0.7,0.7v9.4h1.3v-9.4C65.5,19.7,65.3,19.4,64.9,19.4z"/>
									<rect x="59.3" y="16.7" class="st0" width="11.2" height="1.3"/>
								</g>
								<path class="st0" d="M96.9,16.7l-5.8,12.9h1.5l5-11.1l2.7,5.9h-3.9c-0.3,0-0.7,0.3-0.7,0.7c0,0.3,0.3,0.7,0.7,0.7h4.5
									l1.7,3.8h1.5l-5.8-12.9H96.9z"/>
								<polygon class="st0" points="118,16.7 116.6,16.7 111.6,27.8 106.6,16.7 105.2,16.7 111,29.5 112.2,29.5 								"/>
							</g>
						</g>
					</g>
					<g>
						<path class="st1" d="M13.2,24.7c-0.4,1.5-1.7,2.6-3,3.1c-1.5-0.6-2.6-1.7-3-3.1L7,24.3H0.4L0.5,25c0.9,4.5,4.9,7.6,9.4,7.6
							c4.6,0,8.5-3.2,9.4-7.7l0.1-0.7h-6.3L13.2,24.7z M6.2,25.4c0.4,1,1,1.8,1.9,2.5L8.3,28c0,0-2.6,0.1-4.3-2.6H6.2z M18.1,25.4
							c-1,3.6-4.4,6-8.1,6S3,29,2,25.4h0.9c0,0,1.2,3.4,5,3.8c1.8,0.2,3.1-0.4,3.1-0.4l0,0c1.3-0.7,2.5-1.8,3.1-3.4H18.1z"/>
						<path class="st1" d="M6.8,21.4c0.4-1.5,1.7-2.6,3-3.1c1.5,0.6,2.6,1.7,3,3.1l0.1,0.3h6.6l-0.1-0.7c-0.9-4.5-4.9-7.6-9.4-7.6
							c-4.6,0-8.5,3.2-9.4,7.7l-0.1,0.7h6.3V21.4z M13.8,20.6c-0.4-1-1-1.8-1.9-2.5L11.7,18c0,0,2.6-0.1,4.3,2.6H13.8z M2,20.6
							c1-3.6,4.4-6,8.1-6s7.1,2.5,8.1,6h-0.9c0,0-1.2-3.4-5-3.8C10.4,16.6,9,17.3,9,17.3l0,0c-1.5,0.7-2.6,1.8-3.2,3.2H2V20.6z"/>
					</g>
				</g>
				<g>
					<path class="st0" d="M6.2,41c-0.6-0.3-1.2-0.4-2-0.4c-0.7,0-1.3,0.1-2,0.4s-1.1,0.8-1.5,1.5c-0.3,0.6-0.6,1.2-0.6,2
						c0,0.8,0.2,1.5,0.6,2s0.8,1.1,1.5,1.5c0.6,0.3,1.2,0.6,2,0.6c0.7,0,1.3-0.2,2-0.6c0.6-0.3,1.1-0.8,1.5-1.5
						c0.3-0.6,0.6-1.2,0.6-2c0-0.8-0.2-1.5-0.6-2C7.3,41.8,6.9,41.3,6.2,41z M6.8,46c-0.2,0.4-0.6,0.8-1,1.1
						c-0.4,0.2-0.9,0.3-1.5,0.3s-1-0.1-1.5-0.3c-0.4-0.2-0.8-0.6-1-1.1c-0.2-0.4-0.3-1-0.3-1.6s0.1-1.1,0.3-1.6
						c0.2-0.4,0.6-0.8,1-1.1c0.4-0.2,0.9-0.3,1.5-0.3s1,0.1,1.5,0.3c0.4,0.2,0.8,0.6,1,1.1c0.2,0.4,0.3,1,0.3,1.6
						C7.2,45,7,45.6,6.8,46z"/>
					<path class="st0" d="M10.7,41.7c0-0.4,0.1-0.7,0.2-0.9c0.1-0.2,0.4-0.2,0.9-0.2v-0.8c-0.8,0-1.3,0.1-1.7,0.4
						c-0.3,0.3-0.6,0.8-0.6,1.5v0.6H8.8V43h0.8v5.3h1V43h1.3v-0.8h-1.3v-0.6H10.7z"/>
					<path class="st0" d="M14.4,41.7c0-0.4,0.1-0.7,0.2-0.9c0.1-0.2,0.4-0.2,0.9-0.2v-0.8c-0.8,0-1.3,0.1-1.7,0.4
						c-0.3,0.3-0.6,0.8-0.6,1.5v0.6h-0.8V43h0.8v5.3h1V43h2.6v5.3h1v-6.2h-3.5C14.4,42.1,14.4,41.7,14.4,41.7z"/>
					<path class="st0" d="M17.4,39.9c-0.2,0-0.3,0.1-0.4,0.2c-0.1,0.1-0.2,0.3-0.2,0.4c0,0.2,0.1,0.3,0.2,0.4
						c0.1,0.1,0.3,0.2,0.4,0.2c0.1,0,0.3-0.1,0.4-0.2c0.1-0.1,0.2-0.3,0.2-0.4c0-0.2-0.1-0.3-0.2-0.4C17.7,39.9,17.6,39.9,17.4,39.9
						z"/>
					<path class="st0" d="M22.1,42.9c0.4,0,0.8,0.1,1.1,0.3c0.3,0.2,0.4,0.4,0.6,0.8h1.1c-0.2-0.7-0.6-1.1-1-1.5S22.8,42,22.1,42
						c-0.6,0-1.1,0.1-1.6,0.3c-0.4,0.2-0.8,0.7-1,1.1c-0.2,0.4-0.3,1-0.3,1.7c0,0.7,0.1,1.2,0.3,1.7c0.2,0.4,0.6,0.9,1,1.1
						s1,0.4,1.6,0.4c0.7,0,1.3-0.2,1.8-0.6c0.4-0.3,0.8-0.8,1-1.5h-1.1c-0.1,0.3-0.3,0.7-0.6,0.9c-0.3,0.2-0.7,0.3-1.1,0.3
						c-0.6,0-1-0.2-1.5-0.6c-0.2-0.4-0.4-1-0.4-1.8s0.2-1.3,0.6-1.7C21.1,43.1,21.5,42.9,22.1,42.9z"/>
					<rect x="26.3" y="42.2" class="st0" width="1" height="6.2"/>
					<path class="st0" d="M26.8,39.9c-0.2,0-0.3,0.1-0.4,0.2c-0.1,0.1-0.2,0.3-0.2,0.4c0,0.2,0.1,0.3,0.2,0.4
						c0.1,0.1,0.3,0.2,0.4,0.2c0.2,0,0.3-0.1,0.4-0.2s0.2-0.3,0.2-0.4c0-0.2-0.1-0.3-0.2-0.4C27.1,39.9,27,39.9,26.8,39.9z"/>
					<path class="st0" d="M33.8,43.5c-0.2-0.4-0.4-0.7-0.9-1c-0.3-0.2-0.9-0.3-1.3-0.3c-0.6,0-1,0.1-1.5,0.3c-0.4,0.2-0.8,0.7-1,1.1
						c-0.2,0.4-0.3,1-0.3,1.7c0,0.7,0.1,1.1,0.3,1.7c0.2,0.4,0.6,0.9,1,1.1c0.4,0.2,0.9,0.4,1.5,0.4c0.6,0,1-0.1,1.3-0.3
						c0.4-0.2,0.7-0.6,0.9-1v1.2h1v-6.2h-1V43.5z M33.5,46.5c-0.2,0.3-0.4,0.6-0.8,0.8c-0.3,0.2-0.7,0.3-1,0.3s-0.7-0.1-1-0.3
						c-0.3-0.2-0.6-0.4-0.8-0.8c-0.2-0.3-0.3-0.8-0.3-1.2c0-0.4,0.1-0.9,0.3-1.2c0.2-0.3,0.4-0.6,0.8-0.8c0.3-0.2,0.7-0.2,1-0.2
						s0.7,0.1,1,0.2c0.3,0.2,0.6,0.4,0.8,0.8c0.2,0.3,0.3,0.8,0.3,1.2C33.8,45.7,33.6,46.1,33.5,46.5z"/>
					<rect x="36.4" y="40.1" class="st0" width="1" height="8.3"/>
					<polygon class="st0" points="42.1,41.4 44.3,41.4 44.3,48.4 45.3,48.4 45.3,41.4 47.3,41.4 47.3,40.5 42.1,40.5 					"/>
					<path class="st0" d="M49.6,43.2v-1h-1v6.2h1V45c0-0.7,0.1-1.1,0.4-1.5c0.2-0.2,0.7-0.4,1.2-0.4h0.2v-1
						C50.7,42.1,50,42.4,49.6,43.2z"/>
					<path class="st0" d="M57.6,43.5c-0.2-0.4-0.4-0.7-0.9-1c-0.4-0.2-0.9-0.3-1.3-0.3c-0.6,0-1,0.1-1.5,0.3c-0.4,0.2-0.8,0.7-1,1.1
						c-0.2,0.4-0.3,1-0.3,1.7c0,0.7,0.1,1.1,0.3,1.7c0.2,0.4,0.6,0.9,1,1.1c0.4,0.2,0.9,0.4,1.5,0.4s1-0.1,1.3-0.3
						c0.4-0.2,0.7-0.6,0.9-1v1.2h1v-6.2h-1V43.5z M57.3,46.5c-0.2,0.3-0.4,0.6-0.8,0.8c-0.3,0.2-0.7,0.3-1,0.3s-0.7-0.1-1-0.3
						c-0.3-0.2-0.6-0.4-0.8-0.8c-0.2-0.3-0.3-0.8-0.3-1.2c0-0.4,0.1-0.9,0.3-1.2c0.2-0.3,0.4-0.6,0.8-0.8c0.3-0.2,0.7-0.2,1-0.2
						s0.7,0.1,1,0.2c0.3,0.2,0.6,0.4,0.8,0.8c0.2,0.3,0.3,0.8,0.3,1.2C57.6,45.7,57.5,46.1,57.3,46.5z"/>
					<polygon class="st0" points="62.5,47.4 60.6,42.2 59.6,42.2 62,48.4 63.1,48.4 65.5,42.2 64.4,42.2 					"/>
					<path class="st0" d="M70.7,42.4c-0.4-0.2-0.9-0.3-1.6-0.3c-0.6,0-1.1,0.1-1.6,0.3c-0.4,0.2-0.8,0.7-1.1,1.1
						c-0.2,0.4-0.3,1-0.3,1.7c0,0.7,0.1,1.2,0.3,1.7c0.2,0.4,0.6,0.9,1,1.1c0.4,0.2,1,0.4,1.6,0.4c0.7,0,1.3-0.2,1.8-0.6
						c0.4-0.3,0.8-0.8,1-1.3h-1.1c-0.1,0.3-0.3,0.6-0.7,0.8c-0.3,0.2-0.7,0.3-1,0.3c-0.6,0-1-0.2-1.3-0.6s-0.6-0.8-0.6-1.5H72
						c0-0.2,0-0.3,0-0.6c0-0.6-0.1-1-0.3-1.5C71.5,43.1,71.1,42.8,70.7,42.4z M67.1,44.9c0-0.6,0.2-1.1,0.6-1.5
						c0.3-0.3,0.8-0.6,1.3-0.6c0.3,0,0.7,0.1,1,0.2c0.3,0.1,0.6,0.3,0.7,0.7c0.2,0.3,0.2,0.7,0.2,1h-3.8V44.9z"/>
					<rect x="73.4" y="40.1" class="st0" width="1" height="8.3"/>
					<path class="st0" d="M83.3,40.9c-0.4-0.2-0.9-0.3-1.5-0.3h-2.5v7.7h1V45h1.5c0.9,0,1.6-0.2,2-0.7c0.4-0.4,0.7-1,0.7-1.7
						c0-0.4-0.1-0.8-0.3-1.1C84.1,41.3,83.8,41.1,83.3,40.9z M83.1,43.9c-0.2,0.2-0.7,0.3-1.2,0.3h-1.5v-2.9h1.5
						c0.6,0,1,0.1,1.2,0.3c0.2,0.2,0.4,0.7,0.4,1.1C83.6,43.3,83.5,43.7,83.1,43.9z"/>
					<path class="st0" d="M90.6,43.5c-0.2-0.4-0.4-0.7-0.9-1c-0.3-0.2-0.9-0.3-1.3-0.3c-0.6,0-1,0.1-1.5,0.3c-0.4,0.2-0.8,0.7-1,1.1
						c-0.2,0.4-0.3,1-0.3,1.7c0,0.7,0.1,1.1,0.3,1.7c0.2,0.4,0.6,0.9,1,1.1c0.4,0.2,0.9,0.4,1.5,0.4s1-0.1,1.3-0.3
						c0.4-0.2,0.7-0.6,0.9-1v1.2h1v-6.2h-1V43.5z M90.4,46.5c-0.2,0.3-0.4,0.6-0.8,0.8s-0.7,0.3-1,0.3c-0.3,0-0.7-0.1-1-0.3
						c-0.3-0.2-0.6-0.4-0.8-0.8c-0.2-0.3-0.3-0.8-0.3-1.2c0-0.4,0.1-0.9,0.3-1.2c0.2-0.3,0.4-0.6,0.8-0.8c0.3-0.2,0.7-0.2,1-0.2
						c0.3,0,0.7,0.1,1,0.2c0.3,0.2,0.6,0.4,0.8,0.8c0.2,0.3,0.3,0.8,0.3,1.2C90.6,45.7,90.5,46.1,90.4,46.5z"/>
					<path class="st0" d="M94.3,43.2v-1h-1v6.2h1V45c0-0.7,0.1-1.1,0.4-1.5c0.2-0.2,0.7-0.4,1.2-0.4h0.2v-1
						C95.3,42.1,94.8,42.4,94.3,43.2z"/>
					<path class="st0" d="M98.9,47.4c-0.1-0.1-0.1-0.3-0.1-0.6v-3.7h1.6v-0.8h-1.6v-1.6h-1v1.6H97v0.8h0.8v3.7
						c0,0.6,0.1,0.9,0.4,1.2c0.2,0.2,0.7,0.3,1.2,0.3h1v-0.8h-0.9C99.2,47.5,99,47.5,98.9,47.4z"/>
					<path class="st0" d="M105.6,42.4c-0.3-0.2-0.8-0.3-1.2-0.3c-0.4,0-0.8,0.1-1.2,0.2c-0.3,0.2-0.7,0.4-0.8,0.8v-1h-1v6.2h1v-3.4
						c0-0.7,0.1-1.1,0.4-1.5c0.3-0.3,0.7-0.4,1.2-0.4s0.9,0.1,1.2,0.4c0.3,0.3,0.4,0.8,0.4,1.5v3.5h1v-3.6c0-0.6-0.1-1-0.3-1.5
						C106.3,42.9,106.1,42.6,105.6,42.4z"/>
					<path class="st0" d="M112.7,42.4c-0.4-0.2-0.9-0.3-1.6-0.3c-0.6,0-1.1,0.1-1.6,0.3c-0.4,0.2-0.8,0.7-1.1,1.1
						c-0.2,0.4-0.3,1-0.3,1.7c0,0.7,0.1,1.2,0.3,1.7c0.2,0.4,0.6,0.9,1,1.1c0.4,0.2,1,0.4,1.6,0.4c0.7,0,1.3-0.2,1.8-0.6
						c0.4-0.3,0.8-0.8,1-1.3h-1.1c-0.1,0.3-0.3,0.6-0.7,0.8c-0.3,0.2-0.7,0.3-1,0.3c-0.6,0-1-0.2-1.3-0.6c-0.3-0.3-0.6-0.8-0.6-1.5
						h4.9c0-0.2,0-0.3,0-0.6c0-0.6-0.1-1-0.3-1.5C113.5,43.1,113.1,42.8,112.7,42.4z M109.1,44.9c0-0.6,0.2-1.1,0.6-1.5
						c0.3-0.3,0.8-0.6,1.3-0.6c0.3,0,0.7,0.1,1,0.2c0.3,0.1,0.6,0.3,0.7,0.7c0.2,0.3,0.2,0.7,0.2,1h-3.8V44.9z"/>
					<path class="st0" d="M116.4,43.2v-1h-1v6.2h1V45c0-0.7,0.1-1.1,0.4-1.5c0.2-0.2,0.7-0.4,1.2-0.4h0.2v-1
						C117.3,42.1,116.7,42.4,116.4,43.2z"/>
				</g>
			</g>
		</g>
		<g>
			<g>
				<path class="st2" d="M224.8,15.9L224.8,15.9v4h20.5v-4H224.8z M256.7,15.9L256.7,15.9v4H277v-4H256.7z M252.8,11.9L252.8,11.9
					h28.1V24h-24.2v4h24.2v3.9h-28.1V11.9z M348.8,28L348.8,28v-4h-20.4v4H348.8z M352.7,31.9L352.7,31.9h-28.3v-12h24.3v-4h-24.3
					v-4h28.3V31.9z M284.5,11.9L284.5,11.9h36.3V32h-3.9V15.9h-12.3V32h-4V15.9h-12.1V32h-4V11.9H284.5z M220.8,11.9h28.4V24h-24.4
					v4h24.4v3.9h-28.4L220.8,11.9L220.8,11.9z"/>
				<path d="M282,38.1h-0.9v-0.7h0.9v-1.9h0.8v1.9h0.9v0.7h-0.9v4H282V38.1z M276.3,42.1v-4.7h0.8v0.8c0.2-0.3,0.4-0.6,0.7-0.7
					c0.3-0.1,0.6-0.2,1-0.2c0.6,0,1,0.1,1.2,0.4c0.3,0.3,0.4,0.7,0.4,1.2v3.1h-0.8v-2.8c0-0.4-0.1-0.8-0.3-1
					c-0.2-0.2-0.6-0.3-0.9-0.3c-0.2,0-0.4,0-0.7,0.1c-0.2,0.1-0.3,0.2-0.4,0.3c-0.1,0.1-0.2,0.2-0.2,0.4c0,0.1-0.1,0.4-0.1,0.8V42
					h-0.7V42.1z M275.3,39.9h-3.7V40c0,0.4,0.1,0.9,0.4,1.2c0.3,0.3,0.7,0.4,1.1,0.4c0.3,0,0.6-0.1,0.9-0.2c0.2-0.1,0.4-0.4,0.7-0.8
					l0.6,0.4c-0.2,0.4-0.6,0.8-0.9,0.9c-0.3,0.2-0.8,0.3-1.2,0.3c-0.7,0-1.2-0.2-1.7-0.7c-0.4-0.4-0.7-1.1-0.7-1.8
					c0-0.8,0.2-1.3,0.7-1.8c0.4-0.4,1-0.7,1.7-0.7c0.7,0,1.2,0.2,1.7,0.7c0.4,0.4,0.6,1,0.6,1.8v0H275.3z M274.5,39.2
					c0-0.4-0.1-0.7-0.4-0.9c-0.2-0.2-0.6-0.3-1-0.3c-0.3,0-0.7,0.1-1,0.3c-0.2,0.2-0.4,0.6-0.4,0.9H274.5z M268.3,42.4l-2.4-4.9h0.9
					l1.3,3.2l1.5-3.2h0.9L268.3,42.4z M261.7,42.1v-7.4h3.9v0.8h-3v2.1h3v0.8h-3v2.8h3V42h-3.9V42.1z"/>
				<path d="M291.2,42.1l-0.7-0.9c-0.3,0.3-0.7,0.6-1,0.8c-0.3,0.2-0.8,0.2-1.2,0.2c-0.7,0-1.2-0.2-1.6-0.6
					c-0.4-0.3-0.6-0.9-0.6-1.6c0-0.4,0.1-0.9,0.4-1.2c0.3-0.3,0.7-0.8,1.2-1l-0.3-0.3c-0.1-0.2-0.3-0.3-0.3-0.6
					c-0.1-0.2-0.1-0.4-0.1-0.7c0-0.4,0.1-0.8,0.4-1.1s0.7-0.4,1.2-0.4s0.9,0.1,1.2,0.4c0.3,0.3,0.4,0.7,0.4,1.1c0,0.3-0.1,0.7-0.3,1
					c-0.2,0.3-0.6,0.6-1,0.9l1.6,1.9c0.1-0.1,0.2-0.3,0.4-0.6c0.1-0.2,0.3-0.4,0.4-0.7l0.6,0.6c-0.1,0.2-0.3,0.4-0.4,0.7
					c-0.1,0.2-0.3,0.3-0.4,0.6l1.2,1.5H291.2z M288.5,37.5l0.3-0.2c0.2-0.1,0.4-0.3,0.6-0.4c0.1-0.2,0.2-0.3,0.2-0.6
					s-0.1-0.4-0.2-0.6c-0.1-0.1-0.3-0.2-0.7-0.2c-0.2,0-0.4,0.1-0.7,0.2c-0.1,0.1-0.2,0.3-0.2,0.7c0,0.1,0,0.2,0.1,0.3
					c0,0.1,0.1,0.2,0.2,0.3L288.5,37.5z M290,40.7l-1.8-2.1l-0.2,0.1c-0.4,0.2-0.7,0.6-0.9,0.8c-0.1,0.2-0.2,0.4-0.2,0.8
					c0,0.4,0.1,0.7,0.3,1c0.2,0.2,0.6,0.4,1,0.4c0.2,0,0.6-0.1,0.8-0.2C289.3,41.1,289.7,40.9,290,40.7z"/>
				<path d="M351.5,38.1h-0.9v-0.7h0.9v-1.9h0.8v1.9h0.9v0.7h-0.9v4h-0.8V38.1z M345.9,42.1v-4.7h0.8v0.8c0.2-0.3,0.4-0.6,0.7-0.7
					c0.3-0.1,0.6-0.2,1-0.2c0.6,0,1,0.1,1.2,0.4c0.3,0.3,0.4,0.7,0.4,1.2v3.1h-0.7v-2.8c0-0.4-0.1-0.8-0.3-1
					c-0.2-0.2-0.6-0.3-0.9-0.3c-0.2,0-0.4,0-0.7,0.1c-0.2,0.1-0.3,0.2-0.4,0.3c-0.1,0.1-0.2,0.2-0.2,0.4c0,0.1-0.1,0.4-0.1,0.8V42
					h-0.8V42.1z M345,39.9h-3.7V40c0,0.4,0.1,0.9,0.4,1.2s0.7,0.4,1.1,0.4c0.3,0,0.6-0.1,0.9-0.2c0.2-0.1,0.4-0.4,0.7-0.8l0.6,0.4
					c-0.2,0.4-0.6,0.8-0.9,0.9c-0.3,0.2-0.8,0.3-1.2,0.3c-0.7,0-1.2-0.2-1.7-0.7c-0.4-0.4-0.7-1.1-0.7-1.8c0-0.8,0.2-1.3,0.7-1.8
					s1-0.7,1.7-0.7c0.7,0,1.2,0.2,1.7,0.7c0.4,0.4,0.6,1,0.6,1.8v0H345z M344.2,39.2c0-0.4-0.1-0.7-0.4-0.9c-0.2-0.2-0.6-0.3-1-0.3
					c-0.3,0-0.7,0.1-1,0.3c-0.2,0.2-0.4,0.6-0.4,0.9H344.2z M338.8,42.1v-2.8c0-0.4-0.1-0.8-0.3-1c-0.2-0.2-0.4-0.3-0.9-0.3
					c-0.2,0-0.4,0-0.6,0.1c-0.2,0.1-0.3,0.2-0.4,0.3c-0.1,0.1-0.1,0.2-0.2,0.4c0,0.1-0.1,0.4-0.1,0.8V42h-0.8v-2.7
					c0-0.4-0.1-0.8-0.3-1s-0.4-0.3-0.9-0.3c-0.2,0-0.4,0-0.6,0.1c-0.2,0.1-0.3,0.2-0.4,0.3c-0.1,0.1-0.1,0.2-0.2,0.4
					c0,0.1-0.1,0.4-0.1,0.8V42h-0.8v-4.7h0.8v0.9c0.2-0.3,0.4-0.6,0.7-0.7s0.6-0.2,0.9-0.2c0.3,0,0.7,0.1,1,0.2
					c0.2,0.1,0.4,0.4,0.6,0.7c0.2-0.3,0.4-0.6,0.7-0.7s0.6-0.2,0.9-0.2c0.6,0,0.9,0.1,1.2,0.4c0.3,0.3,0.4,0.7,0.4,1.2v3.1H338.8z
					 M326.9,42.1v-4.7h0.8v0.8c0.2-0.3,0.4-0.6,0.7-0.7c0.3-0.1,0.6-0.2,1-0.2c0.6,0,1,0.1,1.2,0.4c0.3,0.3,0.4,0.7,0.4,1.2v3.1
					h-0.8v-2.8c0-0.4-0.1-0.8-0.3-1c-0.2-0.2-0.6-0.3-0.9-0.3c-0.2,0-0.4,0-0.7,0.1c-0.2,0.1-0.3,0.2-0.4,0.3
					c-0.1,0.1-0.2,0.2-0.2,0.4c0,0.1-0.1,0.4-0.1,0.8V42h-0.7V42.1z M324.7,42.1v-4.7h0.8v4.7H324.7z M324.6,35.2
					c0-0.1,0.1-0.3,0.2-0.4c0.1-0.1,0.2-0.2,0.4-0.2c0.1,0,0.3,0.1,0.4,0.2c0.1,0.1,0.2,0.2,0.2,0.4c0,0.1,0,0.3-0.2,0.4
					c-0.1,0.1-0.2,0.2-0.4,0.2c-0.1,0-0.3,0-0.4-0.2C324.6,35.5,324.6,35.4,324.6,35.2z M323.5,37.4v4.7h-0.8v-0.9
					c-0.2,0.3-0.4,0.6-0.7,0.8c-0.3,0.2-0.6,0.2-1,0.2c-0.7,0-1.2-0.2-1.6-0.7c-0.4-0.4-0.6-1.1-0.6-1.8c0-0.8,0.2-1.3,0.6-1.8
					c0.4-0.4,0.9-0.7,1.6-0.7c0.3,0,0.7,0.1,1,0.2c0.3,0.2,0.6,0.4,0.7,0.8v-0.9C322.7,37.4,323.5,37.4,323.5,37.4z M322.7,39.9
					c0-0.6-0.1-0.9-0.4-1.2c-0.3-0.3-0.7-0.4-1.1-0.4s-0.9,0.1-1.1,0.4c-0.2,0.3-0.4,0.7-0.4,1.2s0.1,1,0.4,1.3
					c0.2,0.3,0.7,0.4,1.1,0.4s0.9-0.1,1.1-0.4C322.6,40.8,322.7,40.3,322.7,39.9z M316.9,38.1H316v-0.7h0.9v-1.9h0.8v1.9h0.9v0.7
					h-0.9v4h-0.8V38.1z M313.4,42.1v-4.7h0.7v1c0.2-0.4,0.4-0.7,0.7-0.9s0.6-0.2,0.9-0.2c0.1,0,0.2,0,0.2,0c0.1,0,0.2,0,0.2,0.1
					l-0.2,0.7c-0.1,0-0.2,0-0.2-0.1c-0.1,0-0.1,0-0.2,0c-0.4,0-0.8,0.1-0.9,0.4c-0.2,0.3-0.3,0.8-0.3,1.3V42h-0.8V42.1z M312.5,39.9
					h-3.7V40c0,0.4,0.1,0.9,0.4,1.2c0.3,0.3,0.7,0.4,1.1,0.4c0.3,0,0.6-0.1,0.9-0.2c0.2-0.1,0.4-0.4,0.7-0.8l0.6,0.4
					c-0.2,0.4-0.6,0.8-0.9,0.9c-0.3,0.2-0.8,0.3-1.2,0.3c-0.7,0-1.2-0.2-1.7-0.7c-0.4-0.4-0.7-1.1-0.7-1.8c0-0.8,0.2-1.3,0.7-1.8
					s1-0.7,1.7-0.7s1.2,0.2,1.7,0.7c0.4,0.4,0.6,1,0.6,1.8v0H312.5z M311.7,39.2c0-0.4-0.1-0.7-0.4-0.9c-0.2-0.2-0.6-0.3-1-0.3
					c-0.3,0-0.7,0.1-1,0.3c-0.2,0.2-0.4,0.6-0.4,0.9H311.7z M306.1,38.1h-0.9v-0.7h0.9v-1.9h0.8v1.9h0.9v0.7h-0.9v4h-0.8V38.1z
					 M300.5,42.1v-4.7h0.8v0.8c0.2-0.3,0.4-0.6,0.7-0.7c0.3-0.1,0.6-0.2,1-0.2c0.6,0,1,0.1,1.2,0.4c0.3,0.3,0.4,0.7,0.4,1.2v3.1
					h-0.8v-2.8c0-0.4-0.1-0.8-0.3-1c-0.2-0.2-0.6-0.3-0.9-0.3c-0.2,0-0.4,0-0.7,0.1c-0.2,0.1-0.3,0.2-0.4,0.3
					c-0.1,0.1-0.2,0.2-0.2,0.4c0,0.1-0.1,0.4-0.1,0.8V42h-0.7V42.1z M295.6,42.1v-7.4h3.9v0.8h-3v2.1h3v0.8h-3v2.8h3V42h-3.9V42.1z"
					/>
				<path d="M299.7,47.5h-0.9v-0.7h0.9v-1.9h0.8v1.9h0.9v0.7h-0.9v4h-0.8V47.5z M294,51.5v-4.7h0.8v0.7c0.2-0.3,0.4-0.6,0.7-0.7
					c0.3-0.1,0.6-0.2,1-0.2c0.6,0,1,0.1,1.2,0.4c0.3,0.3,0.4,0.7,0.4,1.2v3.1h-0.8v-2.7c0-0.4-0.1-0.8-0.3-1
					c-0.2-0.2-0.6-0.3-0.9-0.3c-0.2,0-0.4,0-0.7,0.1c-0.2,0.1-0.3,0.2-0.4,0.3c-0.1,0.1-0.2,0.2-0.2,0.4c0,0.1-0.1,0.4-0.1,0.8v2.4
					H294V51.5z M293,49.3h-3.7v0.1c0,0.4,0.1,0.9,0.4,1.2c0.3,0.3,0.7,0.4,1.1,0.4c0.3,0,0.6-0.1,0.9-0.2c0.2-0.1,0.4-0.4,0.7-0.8
					l0.6,0.4c-0.2,0.4-0.6,0.8-0.9,0.9c-0.3,0.2-0.8,0.3-1.2,0.3c-0.7,0-1.2-0.2-1.7-0.7c-0.4-0.4-0.7-1.1-0.7-1.8
					c0-0.8,0.2-1.3,0.7-1.8c0.4-0.4,1-0.7,1.7-0.7c0.7,0,1.2,0.2,1.7,0.7c0.4,0.4,0.6,1,0.6,1.8v0H293z M292.2,48.7
					c0-0.4-0.1-0.7-0.4-0.9c-0.2-0.2-0.6-0.3-1-0.3c-0.3,0-0.7,0.1-1,0.3c-0.2,0.2-0.4,0.6-0.4,0.9H292.2z M286.8,51.5v-2.7
					c0-0.4-0.1-0.8-0.3-1c-0.2-0.2-0.4-0.3-0.9-0.3c-0.2,0-0.4,0-0.6,0.1c-0.2,0.1-0.3,0.2-0.4,0.3c-0.1,0.1-0.1,0.2-0.2,0.4
					c0,0.1-0.1,0.4-0.1,0.8v2.4h-0.8v-2.7c0-0.4-0.1-0.8-0.3-1c-0.2-0.2-0.4-0.3-0.9-0.3c-0.2,0-0.4,0-0.6,0.1
					c-0.2,0.1-0.3,0.2-0.4,0.3c-0.1,0.1-0.1,0.2-0.2,0.4c0,0.1-0.1,0.4-0.1,0.8v2.4H280v-4.7h0.8v0.7c0.2-0.3,0.4-0.6,0.7-0.7
					c0.2-0.1,0.6-0.2,0.9-0.2c0.3,0,0.7,0.1,1,0.2c0.2,0.1,0.4,0.4,0.6,0.7c0.2-0.3,0.4-0.6,0.7-0.7c0.2-0.1,0.6-0.2,0.9-0.2
					c0.6,0,0.9,0.1,1.2,0.4c0.3,0.3,0.4,0.7,0.4,1.2v3.1h-0.4V51.5z M279.4,49.3h-3.7v0.1c0,0.4,0.1,0.9,0.4,1.2
					c0.3,0.3,0.7,0.4,1.1,0.4c0.3,0,0.6-0.1,0.9-0.2c0.2-0.1,0.4-0.4,0.7-0.8l0.6,0.4c-0.2,0.4-0.6,0.8-0.9,0.9
					c-0.3,0.2-0.8,0.3-1.2,0.3c-0.7,0-1.2-0.2-1.7-0.7c-0.4-0.4-0.7-1.1-0.7-1.8c0-0.8,0.2-1.3,0.7-1.8c0.4-0.4,1-0.7,1.7-0.7
					c0.7,0,1.2,0.2,1.7,0.7c0.4,0.4,0.6,1,0.6,1.8v0H279.4z M278.5,48.7c0-0.4-0.1-0.7-0.4-0.9c-0.2-0.2-0.6-0.3-1-0.3
					c-0.3,0-0.7,0.1-1,0.3c-0.2,0.2-0.4,0.6-0.4,0.9H278.5z M273.8,46.8v4.6c0,0.6,0,0.9-0.1,1.1c-0.1,0.2-0.2,0.4-0.3,0.6
					c-0.2,0.2-0.4,0.4-0.8,0.6c-0.3,0.1-0.7,0.2-1.1,0.2c-0.7,0-1.2-0.1-1.7-0.4c-0.4-0.3-0.6-0.8-0.7-1.3h0.9v0.1
					c0,0.3,0.1,0.7,0.3,0.8c0.2,0.2,0.6,0.3,1,0.3c0.3,0,0.6,0,0.8-0.1c0.2-0.1,0.4-0.2,0.6-0.4c0.1-0.1,0.1-0.2,0.1-0.4
					c0-0.1,0-0.3,0-0.7v-0.3v-0.4c-0.2,0.3-0.4,0.6-0.7,0.8c-0.3,0.2-0.7,0.2-1,0.2c-0.7,0-1.2-0.2-1.6-0.7c-0.4-0.4-0.6-1-0.6-1.8
					c0-0.8,0.2-1.3,0.6-1.8c0.4-0.4,0.9-0.7,1.6-0.7c0.3,0,0.7,0.1,1,0.2c0.3,0.2,0.6,0.4,0.7,0.8V47h1V46.8z M273.1,49.2
					c0-0.6-0.1-0.9-0.4-1.2c-0.3-0.3-0.7-0.4-1.1-0.4c-0.4,0-0.9,0.1-1.1,0.4s-0.4,0.7-0.4,1.2s0.1,1,0.4,1.3
					c0.2,0.3,0.7,0.4,1.1,0.4c0.4,0,0.9-0.1,1.1-0.4S273.1,49.7,273.1,49.2z M268.2,46.8v4.7h-0.8v-0.9c-0.2,0.3-0.4,0.6-0.7,0.8
					c-0.3,0.2-0.6,0.2-1,0.2c-0.7,0-1.2-0.2-1.6-0.7c-0.4-0.4-0.6-1.1-0.6-1.8c0-0.8,0.2-1.3,0.6-1.8c0.4-0.4,0.9-0.7,1.6-0.7
					c0.3,0,0.7,0.1,1,0.2c0.3,0.2,0.6,0.4,0.7,0.8v-0.9L268.2,46.8L268.2,46.8z M267.4,49.3c0-0.6-0.1-0.9-0.4-1.2
					c-0.3-0.3-0.7-0.4-1.1-0.4c-0.4,0-0.9,0.1-1.1,0.4s-0.4,0.7-0.4,1.2s0.1,1,0.4,1.3c0.2,0.3,0.7,0.4,1.1,0.4
					c0.4,0,0.9-0.1,1.1-0.4C267.3,50.2,267.4,49.7,267.4,49.3z M258.2,51.5v-4.7h0.8v0.7c0.2-0.3,0.4-0.6,0.7-0.7
					c0.3-0.1,0.6-0.2,1-0.2c0.6,0,1,0.1,1.2,0.4c0.3,0.3,0.4,0.7,0.4,1.2v3.1h-0.8v-2.7c0-0.4-0.1-0.8-0.3-1
					c-0.2-0.2-0.6-0.3-0.9-0.3c-0.2,0-0.4,0-0.7,0.1c-0.2,0.1-0.3,0.2-0.4,0.3c-0.1,0.1-0.2,0.2-0.2,0.4c0,0.1-0.1,0.4-0.1,0.8v2.4
					h-0.7V51.5z M256.9,46.8v4.7h-0.8v-0.9c-0.2,0.3-0.4,0.6-0.7,0.8c-0.3,0.2-0.6,0.2-1,0.2c-0.7,0-1.2-0.2-1.6-0.7
					c-0.4-0.4-0.6-1.1-0.6-1.8c0-0.8,0.2-1.3,0.6-1.8c0.4-0.4,0.9-0.7,1.6-0.7c0.3,0,0.7,0.1,1,0.2c0.3,0.2,0.6,0.4,0.7,0.8v-0.9
					L256.9,46.8L256.9,46.8z M256.1,49.3c0-0.6-0.1-0.9-0.4-1.2c-0.3-0.3-0.7-0.4-1.1-0.4c-0.4,0-0.9,0.1-1.1,0.4s-0.4,0.7-0.4,1.2
					s0.1,1,0.4,1.3c0.2,0.3,0.7,0.4,1.1,0.4c0.4,0,0.9-0.1,1.1-0.4C256,50.2,256.1,49.7,256.1,49.3z M247.6,51.9l-2.4-5.4l-0.9,5
					h-0.9l1.5-7.7l2.6,6.2l2.6-6.2l1.5,7.7h-0.7l-0.9-5L247.6,51.9z"/>
				<path d="M348.2,51.5v-4.7h0.8v0.7c0.2-0.3,0.4-0.6,0.7-0.7c0.3-0.1,0.6-0.2,1-0.2c0.6,0,1,0.1,1.2,0.4c0.3,0.3,0.4,0.7,0.4,1.2
					v3.1h-0.8v-2.7c0-0.4-0.1-0.8-0.3-1c-0.2-0.2-0.6-0.3-0.9-0.3c-0.2,0-0.4,0-0.7,0.1c-0.2,0.1-0.3,0.2-0.4,0.3
					c-0.1,0.1-0.2,0.2-0.2,0.4c0,0.1-0.1,0.4-0.1,0.8v2.4h-0.7V51.5z M342.2,49.2c0-0.3,0.1-0.7,0.2-1c0.1-0.3,0.3-0.6,0.6-0.8
					s0.6-0.4,0.8-0.6c0.3-0.1,0.7-0.2,1-0.2c0.3,0,0.7,0.1,1,0.2c0.3,0.1,0.6,0.3,0.8,0.6c0.2,0.2,0.4,0.4,0.6,0.8
					c0.1,0.3,0.2,0.7,0.2,1s-0.1,0.7-0.2,1c-0.1,0.3-0.3,0.6-0.6,0.8c-0.2,0.2-0.6,0.4-0.8,0.6c-0.3,0.1-0.7,0.2-1,0.2
					c-0.3,0-0.7-0.1-1-0.2c-0.3-0.1-0.6-0.3-0.8-0.6s-0.4-0.6-0.6-0.8C342.3,49.8,342.2,49.5,342.2,49.2z M343.1,49.2
					c0,0.4,0.1,0.9,0.4,1.2c0.3,0.3,0.8,0.6,1.2,0.6s0.9-0.2,1.2-0.6c0.3-0.3,0.4-0.8,0.4-1.2c0-0.4-0.1-0.9-0.4-1.2
					c-0.3-0.3-0.7-0.6-1.2-0.6c-0.4,0-0.9,0.2-1.2,0.6C343.2,48.3,343.1,48.7,343.1,49.2z M340.4,51.5v-4.7h0.8v4.7H340.4z
					 M340.1,44.6c0-0.1,0.1-0.3,0.2-0.4c0.1-0.1,0.2-0.2,0.4-0.2c0.1,0,0.3,0.1,0.4,0.2c0.1,0.1,0.2,0.2,0.2,0.4
					c0,0.1,0,0.3-0.2,0.4c-0.1,0.1-0.2,0.2-0.4,0.2c-0.1,0-0.3,0-0.4-0.2C340.1,44.9,340.1,44.8,340.1,44.6z M337.9,47.5H337v-0.7
					h0.9v-1.9h0.8v1.9h0.9v0.7h-0.9v4h-0.8V47.5z M336.5,46.8v4.7h-0.8v-0.9c-0.2,0.3-0.4,0.6-0.7,0.8c-0.3,0.2-0.6,0.2-1,0.2
					c-0.7,0-1.2-0.2-1.6-0.7c-0.4-0.4-0.6-1.1-0.6-1.8c0-0.8,0.2-1.3,0.6-1.8c0.4-0.4,0.9-0.7,1.6-0.7c0.3,0,0.7,0.1,1,0.2
					c0.3,0.2,0.6,0.4,0.7,0.8v-0.9L336.5,46.8L336.5,46.8z M335.7,49.3c0-0.6-0.1-0.9-0.4-1.2c-0.3-0.3-0.7-0.4-1.1-0.4
					c-0.4,0-0.9,0.1-1.1,0.4s-0.4,0.7-0.4,1.2s0.1,1,0.4,1.3c0.2,0.3,0.7,0.4,1.1,0.4c0.4,0,0.9-0.1,1.1-0.4
					C335.6,50.2,335.7,49.7,335.7,49.3z M330,51.5v-4.7h0.8v4.7H330z M329.7,44.6c0-0.1,0.1-0.3,0.2-0.4c0.1-0.1,0.2-0.2,0.4-0.2
					c0.1,0,0.3,0.1,0.4,0.2c0.1,0.1,0.2,0.2,0.2,0.4c0,0.1,0,0.3-0.2,0.4c-0.1,0.1-0.2,0.2-0.4,0.2c-0.1,0-0.3,0-0.4-0.2
					C329.7,44.9,329.7,44.8,329.7,44.6z M329.1,50.4v0.9c-0.2,0.1-0.4,0.2-0.7,0.3c-0.2,0.1-0.6,0.1-0.9,0.1c-0.7,0-1.3-0.2-1.7-0.7
					c-0.4-0.4-0.7-1-0.7-1.8c0-0.8,0.2-1.3,0.7-1.8c0.4-0.4,1-0.7,1.8-0.7c0.2,0,0.6,0,0.8,0.1c0.2,0,0.4,0.1,0.7,0.2V48
					c-0.2-0.1-0.4-0.2-0.7-0.3c-0.2-0.1-0.4-0.1-0.7-0.1c-0.6,0-0.9,0.1-1.2,0.4s-0.4,0.8-0.4,1.3c0,0.4,0.1,0.9,0.4,1.2
					c0.3,0.3,0.7,0.4,1.2,0.4c0.2,0,0.4,0,0.7-0.1C328.6,50.8,328.7,50.6,329.1,50.4z M319.4,49.2c0-0.3,0.1-0.7,0.2-1
					c0.1-0.3,0.3-0.6,0.6-0.8c0.2-0.2,0.6-0.4,0.8-0.6c0.3-0.1,0.7-0.2,1-0.2c0.3,0,0.7,0.1,1,0.2c0.3,0.1,0.6,0.3,0.8,0.6
					s0.4,0.4,0.6,0.8c0.1,0.3,0.2,0.7,0.2,1s-0.1,0.7-0.2,1c-0.1,0.3-0.3,0.6-0.6,0.8s-0.6,0.4-0.8,0.6c-0.3,0.1-0.7,0.2-1,0.2
					c-0.3,0-0.7-0.1-1-0.2c-0.3-0.1-0.6-0.3-0.8-0.6c-0.2-0.2-0.4-0.6-0.6-0.8C319.4,49.8,319.4,49.5,319.4,49.2z M320.2,49.2
					c0,0.4,0.1,0.9,0.4,1.2c0.3,0.3,0.8,0.6,1.2,0.6s0.9-0.2,1.2-0.6s0.4-0.8,0.4-1.2c0-0.4-0.1-0.9-0.4-1.2
					c-0.3-0.3-0.7-0.6-1.2-0.6c-0.4,0-0.9,0.2-1.2,0.6C320.4,48.3,320.2,48.7,320.2,49.2z M315.3,50.7l0.7-0.4
					c0.1,0.2,0.3,0.4,0.4,0.6c0.2,0.1,0.4,0.2,0.7,0.2s0.4-0.1,0.7-0.2c0.1-0.1,0.2-0.3,0.2-0.6c0-0.1,0-0.3-0.1-0.4
					c-0.1-0.1-0.3-0.2-0.6-0.3h-0.1c-1.1-0.3-1.7-0.9-1.7-1.5c0-0.4,0.1-0.8,0.4-1c0.3-0.2,0.7-0.4,1.2-0.4c0.4,0,0.8,0.1,1,0.2
					c0.3,0.1,0.4,0.3,0.7,0.7l-0.7,0.4c-0.1-0.2-0.2-0.3-0.4-0.4c-0.2-0.1-0.4-0.2-0.7-0.2s-0.4,0.1-0.6,0.2
					c-0.1,0.1-0.2,0.3-0.2,0.4c0,0.3,0.3,0.6,0.9,0.7c0.1,0,0.2,0.1,0.2,0.1c0.4,0.1,0.9,0.3,1,0.6c0.1,0.2,0.3,0.4,0.3,0.8
					c0,0.4-0.1,0.8-0.4,1.1c-0.3,0.2-0.7,0.4-1.2,0.4c-0.4,0-0.8-0.1-1.1-0.2C315.7,51.3,315.4,51.1,315.3,50.7z M311.3,50.7
					l0.7-0.4c0.1,0.2,0.3,0.4,0.4,0.6c0.2,0.1,0.4,0.2,0.7,0.2s0.4-0.1,0.7-0.2c0.1-0.1,0.2-0.3,0.2-0.6c0-0.1,0-0.3-0.1-0.4
					c-0.1-0.1-0.3-0.2-0.6-0.3h-0.1c-1.1-0.3-1.7-0.9-1.7-1.5c0-0.4,0.1-0.8,0.4-1c0.3-0.2,0.7-0.4,1.2-0.4c0.4,0,0.8,0.1,1,0.2
					c0.3,0.1,0.4,0.3,0.7,0.7l-0.7,0.4c-0.1-0.2-0.2-0.3-0.4-0.4c-0.2-0.1-0.4-0.2-0.7-0.2s-0.4,0.1-0.6,0.2
					c-0.1,0.1-0.2,0.3-0.2,0.4c0,0.3,0.3,0.6,0.9,0.7c0.1,0,0.2,0.1,0.2,0.1c0.4,0.1,0.9,0.3,1,0.6c0.1,0.2,0.3,0.4,0.3,0.8
					c0,0.4-0.1,0.8-0.4,1.1c-0.3,0.2-0.7,0.4-1.2,0.4c-0.4,0-0.8-0.1-1.1-0.2C311.7,51.3,311.5,51.1,311.3,50.7z M307.9,43.8
					l3.4,7.7h-1l-1-2.2h-2.9l-1,2.2h-0.8L307.9,43.8z M307.9,45.7l-1.2,2.7h2.4L307.9,45.7z"/>
			</g>
		</g>
	</g>
	<g>
		<g>
			<path class="st3" d="M556,56.8c-2.7,0-5.4,0-7.9,0c-0.2-6.2-0.4-12.4-0.7-18.6c-0.1,0-0.1,0-0.2,0c0-1,0-2.1,0-3.1
				c3.2,0,6.6,0,9.9,0c0,1,0,2.1,0,3.1c-0.1,0-0.2,0-0.3,0C556.5,44.5,556.2,50.6,556,56.8z"/>
			<rect x="546.7" y="0" class="st3" width="10.2" height="34.4"/>
			<rect x="548.4" y="68" class="st3" width="7.1" height="7.7"/>
		</g>
		<g>
			<polygon points="523.4,15.1 523.4,22.5 519.7,22.5 519.7,15 516.2,15 516.2,33.2 519.7,33.2 519.7,25.2 523.4,25.2 523.4,33.2 
				527,33.2 527,15.1 			"/>
			<polygon points="514.6,15.1 505.5,15.1 505.5,17.8 508.2,17.8 508.2,33.2 511.8,33.2 511.8,17.8 514.6,17.8 			"/>
			<polygon points="538.2,17.8 538.2,15.1 533.3,15.1 531.1,15.1 529.7,15.1 529.7,33.2 531.1,33.2 533.3,33.2 538.2,33.2 
				538.2,30.5 533.3,30.5 533.3,25.2 538.1,25.2 538.1,22.5 533.3,22.5 533.3,17.8 			"/>
		</g>
		<g>
			<path d="M540.2,66.4h-1.6v-9.1h3.6v1.3h-1.9V61h1.9v1.3h-1.9v4H540.2z"/>
			<path d="M547.9,66.4h-1.6l-0.2-1.9h-1.6l-0.2,1.9h-1.6l1.3-9.1h2.7L547.9,66.4z M545.9,63.2l-0.6-4.6l-0.7,4.6H545.9z"/>
			<path d="M552,62.7h1.6v1.7c0,1.5-0.9,2.2-2.5,2.2c-1.5,0-2.5-0.8-2.5-2.2v-4.9c0-1.5,1-2.2,2.5-2.2c1.6,0,2.5,0.8,2.5,2.2v1.3
				H552v-1.1c0-0.8-0.3-1.1-0.9-1.1c-0.6,0-0.9,0.4-0.9,1.1v4.4c0,0.8,0.3,1.1,0.9,1.1c0.6,0,0.9-0.4,0.9-1.1V62.7z"/>
			<path d="M557.1,66.4h-1.6v-7.7h-1.3v-1.3h4.1v1.3h-1.2L557.1,66.4L557.1,66.4z"/>
			<path d="M559.1,64.4v-4.9c0-1.5,1-2.2,2.5-2.2c1.6,0,2.5,0.8,2.5,2.2v4.9c0,1.5-0.9,2.2-2.5,2.2C560,66.6,559.1,65.8,559.1,64.4z
				 M562.4,59.7c0-0.8-0.3-1.1-0.9-1.1c-0.6,0-0.9,0.4-0.9,1.1v4.4c0,0.8,0.3,1.1,0.9,1.1c0.6,0,0.9-0.4,0.9-1.1V59.7z"/>
			<path d="M568.5,66.4c-0.1-0.2-0.1-0.8-0.1-1.7v-1.3c0-0.6-0.2-0.9-0.7-0.9h-1v3.9h-1.6v-9.1h3.1c0.8,0,1.2,0.2,1.5,0.7
				c0.2,0.4,0.3,0.8,0.3,1.5v0.3c0,0.6,0,0.8-0.2,1.3c-0.1,0.4-0.6,0.8-1.1,0.8c0.4,0,0.8,0.2,1,0.4c0.1,0.1,0.1,0.2,0.2,0.4
				c0.1,0.3,0.1,0.6,0.1,1v1.3c0,0.7,0,1.1,0.1,1.2H568.5z M568.4,59.7c0-0.7-0.2-1-0.8-1h-1v2.5h1c0.6,0,0.7-0.2,0.7-0.9v-0.6
				H568.4z"/>
		</g>
		<g>
			<polygon class="st4" points="556.9,35.2 547.2,35.2 547.2,38.1 550.2,38.1 550.2,55.4 554,55.4 554,38.1 556.9,38.1 			"/>
			<polygon points="566.2,35.2 566.2,43.5 562.1,43.5 562.1,35.1 558.3,35.1 558.3,55.4 562.1,55.4 562.1,47.3 566.2,47.3 
				566.2,55.4 569.9,55.4 569.9,35.2 			"/>
			<path d="M518.5,50.7c0,3.2-2.2,5-5.7,5c-3.6,0-5.7-1.9-5.7-5v-2.6h3.8v1.9c0,1.8,0.7,2.7,2,2.7c1.3,0,1.9-0.8,1.9-2.7v-0.7
				c0-1.2-1.2-2.1-2.7-2.8c-0.8-0.3-1.6-0.7-2.2-1c-1.6-0.8-2.7-2.2-2.7-4.3v-1.6c0-3,2.1-5,5.7-5c3.6,0,5.8,1.9,5.8,5v2h-3.8v-1.3
				c0-1.8-0.7-2.6-2-2.6c-1.3,0-2,0.9-2,2.6v0.3c0,1.9,1.9,2.4,3.8,3.1c0.7,0.3,1.3,0.6,1.9,1c1.1,0.7,2,2.1,2,4v1.8H518.5z"/>
			<path d="M520.5,50.7v-11c0-3.2,2.2-5,5.7-5c3.6,0,5.7,1.9,5.7,5v11c0,3.2-2.1,5-5.7,5C522.7,55.9,520.5,54,520.5,50.7z
				 M528.2,40.4c0-1.8-0.7-2.6-2-2.6s-2,0.9-2,2.6v9.6c0,1.8,0.7,2.6,2,2.6c1.3,0,2-0.9,2-2.6V40.4z"/>
			<path d="M542,35.1h3.8v15.7c0,3.2-2.1,5-5.7,5c-3.5,0-5.7-1.9-5.7-5V35.1h3.8v15c0,1.8,0.7,2.6,2,2.6s2-0.9,2-2.6v-15H542z"/>
		</g>
	</g>
</g>
</svg>
