<?xml version="1.0" encoding="utf-8"?>
<!-- Generator: Adobe Illustrator 25.4.1, SVG Export Plug-In . SVG Version: 6.00 Build 0)  -->
<svg version="1.1" id="Layer_1" xmlns="http://www.w3.org/2000/svg" xmlns:xlink="http://www.w3.org/1999/xlink" x="0px" y="0px"
	 viewBox="0 0 595.5 106" style="enable-background:new 0 0 595.5 106;" xml:space="preserve">
<style type="text/css">
	.st0{fill:#12123D;}
	.st1{fill:#785EFF;}
	.st2{fill-rule:evenodd;clip-rule:evenodd;fill:#EF7C23;}
	.st3{fill:#EE1A26;}
	.st4{fill:#FED106;}
</style>
<g>
	<g>
		<g>
			<g>
				<g>
					<g>
						<g>
							<g>
								<g>
									<path class="st0" d="M118,48.4c1.5-0.4,2.4-1.7,2.4-3.2c0-2-1.5-3.4-3.6-3.4h-5.8V43h5.7c1.4,0,2.4,0.9,2.4,2.2
										c0,1.3-1,2.2-2.4,2.2h-2.6c-0.3,0-0.6,0.3-0.6,0.6c0,0.3,0.3,0.6,0.6,0.6h2.5l3.1,4.7h1.4L118,48.4L118,48.4z"/>
									<path class="st0" d="M111.7,44.2c-0.3,0-0.6,0.3-0.6,0.6v8.4h1.2v-8.4C112.3,44.5,112,44.2,111.7,44.2z"/>
								</g>
								<g>
									<path class="st0" d="M76.5,50l-0.1-0.2L76.2,50c-0.8,1.3-2.3,2-3.8,2c-2.2,0-4.1-1.6-4.5-3.8l0-0.1h-1.2l0,0.2
										c0.4,2.8,2.8,4.9,5.6,4.9c1.8,0,3.4-0.8,4.5-2.3l0.1-0.1L77,50.8C76.8,50.5,76.6,50.3,76.5,50z"/>
									<path class="st0" d="M72.5,41.8c-2.8,0-5.2,2.1-5.6,4.9l0,0.2H68l0-0.1c0.4-2.2,2.3-3.8,4.5-3.8c1.5,0,2.9,0.8,3.8,2
										l0.1,0.2l0.1-0.2c0.1-0.3,0.3-0.5,0.5-0.8l0.1-0.1L77,44C75.9,42.6,74.2,41.8,72.5,41.8z"/>
								</g>
								<g>
									<path class="st0" d="M88,41.8l-0.2,0v1.2l0.1,0c2.2,0.4,3.8,2.3,3.8,4.5c0,2.2-1.6,4.1-3.8,4.5l-0.1,0v1.2l0.2,0
										c2.8-0.4,4.9-2.8,4.9-5.6S90.8,42.2,88,41.8z"/>
									<path class="st0" d="M81.5,47.4c0,2.8,2.1,5.2,4.9,5.6l0.2,0v-1.2l-0.1,0c-2.2-0.4-3.8-2.3-3.8-4.5c0-2.2,1.6-4.1,3.8-4.5
										l0.1,0v-1.2l-0.2,0C83.6,42.2,81.5,44.6,81.5,47.4z"/>
								</g>
								<g>
									<path class="st0" d="M100.9,44.2c-0.3,0-0.6,0.3-0.6,0.6v8.4h1.2v-8.4C101.5,44.5,101.3,44.2,100.9,44.2z"/>
									<rect x="95.9" y="41.8" class="st0" width="10" height="1.2"/>
								</g>
								<path class="st0" d="M129.5,41.8l-5.2,11.5h1.3l4.5-9.9l2.4,5.3h-3.5c-0.3,0-0.6,0.3-0.6,0.6s0.3,0.6,0.6,0.6h4l1.5,3.4h1.3
									l-5.2-11.5H129.5z"/>
								<polygon class="st0" points="148.4,41.8 147.1,41.8 142.6,51.7 138.2,41.8 136.9,41.8 142.1,53.2 143.2,53.2 								"/>
							</g>
						</g>
					</g>
					<g>
						<path class="st1" d="M54.7,48.9c-0.4,1.3-1.5,2.3-2.7,2.8c-1.3-0.5-2.3-1.5-2.7-2.8l-0.1-0.3h-5.9l0.1,0.6
							c0.8,4,4.4,6.8,8.4,6.8c4.1,0,7.6-2.9,8.4-6.9l0.1-0.6h-5.6L54.7,48.9z M48.5,49.6c0.4,0.9,0.9,1.6,1.7,2.2l0.2,0.1
							c0,0-2.3,0.1-3.8-2.3H48.5z M59.1,49.6c-0.9,3.2-3.9,5.4-7.2,5.4c-3.3,0-6.3-2.2-7.2-5.4h0.8c0,0,1.1,3,4.5,3.4
							c1.6,0.2,2.8-0.4,2.8-0.4l0,0C54,52,55,51,55.6,49.6H59.1z"/>
						<path class="st1" d="M49,46c0.4-1.3,1.5-2.3,2.7-2.8c1.3,0.5,2.3,1.5,2.7,2.8l0.1,0.3h5.9l-0.1-0.6c-0.8-4-4.4-6.8-8.4-6.8
							c-4.1,0-7.6,2.9-8.4,6.9l-0.1,0.6h5.6L49,46z M55.3,45.3c-0.4-0.9-0.9-1.6-1.7-2.2L53.4,43c0,0,2.3-0.1,3.8,2.3H55.3z
							 M44.7,45.3c0.9-3.2,3.9-5.4,7.2-5.4c3.3,0,6.3,2.2,7.2,5.4h-0.8c0,0-1.1-3-4.5-3.4c-1.6-0.2-2.8,0.4-2.8,0.4l0,0
							c-1.3,0.6-2.3,1.6-2.9,2.9H44.7z"/>
					</g>
				</g>
				<g>
					<path class="st0" d="M48.5,63.5c-0.5-0.3-1.1-0.4-1.8-0.4c-0.6,0-1.2,0.1-1.8,0.4s-1,0.7-1.3,1.3c-0.3,0.5-0.5,1.1-0.5,1.8
						c0,0.7,0.2,1.3,0.5,1.8c0.3,0.5,0.7,1,1.3,1.3c0.5,0.3,1.1,0.5,1.8,0.5c0.6,0,1.2-0.2,1.8-0.5c0.5-0.3,1-0.7,1.3-1.3
						c0.3-0.5,0.5-1.1,0.5-1.8c0-0.7-0.2-1.3-0.5-1.8C49.5,64.2,49.1,63.8,48.5,63.5z M49,68c-0.2,0.4-0.5,0.7-0.9,1
						c-0.4,0.2-0.8,0.3-1.3,0.3c-0.5,0-0.9-0.1-1.3-0.3c-0.4-0.2-0.7-0.5-0.9-1c-0.2-0.4-0.3-0.9-0.3-1.4c0-0.5,0.1-1,0.3-1.4
						c0.2-0.4,0.5-0.7,0.9-1c0.4-0.2,0.8-0.3,1.3-0.3c0.5,0,0.9,0.1,1.3,0.3c0.4,0.2,0.7,0.5,0.9,1c0.2,0.4,0.3,0.9,0.3,1.4
						C49.4,67.1,49.2,67.6,49,68z"/>
					<path class="st0" d="M52.5,64.1c0-0.4,0.1-0.6,0.2-0.8s0.4-0.2,0.8-0.2v-0.7c-0.7,0-1.2,0.1-1.5,0.4c-0.3,0.3-0.5,0.7-0.5,1.3
						v0.5h-0.7v0.7h0.7v4.7h0.9v-4.7h1.2v-0.7h-1.2V64.1z"/>
					<path class="st0" d="M55.8,64.1c0-0.4,0.1-0.6,0.2-0.8s0.4-0.2,0.8-0.2v-0.7c-0.7,0-1.2,0.1-1.5,0.4s-0.5,0.7-0.5,1.3v0.5h-0.7
						v0.7h0.7v4.7h0.9v-4.7H58v4.7h0.9v-5.5h-3.1V64.1z"/>
					<path class="st0" d="M58.5,62.5c-0.2,0-0.3,0.1-0.4,0.2c-0.1,0.1-0.2,0.3-0.2,0.4c0,0.2,0.1,0.3,0.2,0.4
						c0.1,0.1,0.3,0.2,0.4,0.2s0.3-0.1,0.4-0.2c0.1-0.1,0.2-0.3,0.2-0.4c0-0.2-0.1-0.3-0.2-0.4C58.8,62.5,58.7,62.5,58.5,62.5z"/>
					<path class="st0" d="M62.7,65.2c0.4,0,0.7,0.1,1,0.3c0.3,0.2,0.4,0.4,0.5,0.7h1c-0.2-0.6-0.5-1-0.9-1.3c-0.4-0.3-1-0.5-1.6-0.5
						c-0.5,0-1,0.1-1.4,0.3c-0.4,0.2-0.7,0.6-0.9,1c-0.2,0.4-0.3,0.9-0.3,1.5c0,0.6,0.1,1.1,0.3,1.5c0.2,0.4,0.5,0.8,0.9,1
						c0.4,0.2,0.9,0.4,1.4,0.4c0.6,0,1.2-0.2,1.6-0.5c0.4-0.3,0.7-0.7,0.9-1.3h-1c-0.1,0.3-0.3,0.6-0.5,0.8c-0.3,0.2-0.6,0.3-1,0.3
						c-0.5,0-0.9-0.2-1.3-0.5C61.2,68.5,61,68,61,67.3c0-0.7,0.2-1.2,0.5-1.5C61.8,65.4,62.2,65.2,62.7,65.2z"/>
					<rect x="66.4" y="64.6" class="st0" width="0.9" height="5.5"/>
					<path class="st0" d="M66.9,62.5c-0.2,0-0.3,0.1-0.4,0.2c-0.1,0.1-0.2,0.3-0.2,0.4c0,0.2,0.1,0.3,0.2,0.4
						c0.1,0.1,0.3,0.2,0.4,0.2c0.2,0,0.3-0.1,0.4-0.2c0.1-0.1,0.2-0.3,0.2-0.4c0-0.2-0.1-0.3-0.2-0.4C67.2,62.5,67.1,62.5,66.9,62.5
						z"/>
					<path class="st0" d="M73.1,65.7c-0.2-0.4-0.4-0.6-0.8-0.9c-0.3-0.2-0.8-0.3-1.2-0.3c-0.5,0-0.9,0.1-1.3,0.3
						c-0.4,0.2-0.7,0.6-0.9,1c-0.2,0.4-0.3,0.9-0.3,1.5c0,0.6,0.1,1,0.3,1.5c0.2,0.4,0.5,0.8,0.9,1c0.4,0.2,0.8,0.4,1.3,0.4
						c0.5,0,0.9-0.1,1.2-0.3c0.4-0.2,0.6-0.5,0.8-0.9v1.1H74v-5.5h-0.9V65.7z M72.9,68.4c-0.2,0.3-0.4,0.5-0.7,0.7
						c-0.3,0.2-0.6,0.3-0.9,0.3c-0.3,0-0.6-0.1-0.9-0.3c-0.3-0.2-0.5-0.4-0.7-0.7c-0.2-0.3-0.3-0.7-0.3-1.1c0-0.4,0.1-0.8,0.3-1.1
						c0.2-0.3,0.4-0.5,0.7-0.7c0.3-0.2,0.6-0.2,0.9-0.2c0.3,0,0.6,0.1,0.9,0.2c0.3,0.2,0.5,0.4,0.7,0.7c0.2,0.3,0.3,0.7,0.3,1.1
						C73.1,67.7,73,68.1,72.9,68.4z"/>
					<rect x="75.5" y="62.7" class="st0" width="0.9" height="7.4"/>
					<polygon class="st0" points="80.6,63.9 82.5,63.9 82.5,70.1 83.4,70.1 83.4,63.9 85.2,63.9 85.2,63.1 80.6,63.1 					"/>
					<path class="st0" d="M87.3,65.5v-0.9h-0.9v5.5h0.9v-3c0-0.6,0.1-1,0.4-1.3c0.2-0.2,0.6-0.4,1.1-0.4H89v-0.9
						C88.2,64.5,87.6,64.8,87.3,65.5z"/>
					<path class="st0" d="M94.4,65.7c-0.2-0.4-0.4-0.6-0.8-0.9c-0.4-0.2-0.8-0.3-1.2-0.3c-0.5,0-0.9,0.1-1.3,0.3
						c-0.4,0.2-0.7,0.6-0.9,1c-0.2,0.4-0.3,0.9-0.3,1.5c0,0.6,0.1,1,0.3,1.5c0.2,0.4,0.5,0.8,0.9,1c0.4,0.2,0.8,0.4,1.3,0.4
						c0.5,0,0.9-0.1,1.2-0.3c0.4-0.2,0.6-0.5,0.8-0.9v1.1h0.9v-5.5h-0.9V65.7z M94.1,68.4c-0.2,0.3-0.4,0.5-0.7,0.7
						c-0.3,0.2-0.6,0.3-0.9,0.3c-0.3,0-0.6-0.1-0.9-0.3c-0.3-0.2-0.5-0.4-0.7-0.7c-0.2-0.3-0.3-0.7-0.3-1.1c0-0.4,0.1-0.8,0.3-1.1
						c0.2-0.3,0.4-0.5,0.7-0.7c0.3-0.2,0.6-0.2,0.9-0.2c0.3,0,0.6,0.1,0.9,0.2c0.3,0.2,0.5,0.4,0.7,0.7c0.2,0.3,0.3,0.7,0.3,1.1
						C94.4,67.7,94.3,68.1,94.1,68.4z"/>
					<polygon class="st0" points="98.8,69.2 97.1,64.6 96.2,64.6 98.3,70.1 99.3,70.1 101.5,64.6 100.5,64.6 					"/>
					<path class="st0" d="M106.1,64.8c-0.4-0.2-0.8-0.3-1.4-0.3c-0.5,0-1,0.1-1.4,0.3c-0.4,0.2-0.7,0.6-1,1
						c-0.2,0.4-0.3,0.9-0.3,1.5c0,0.6,0.1,1.1,0.3,1.5c0.2,0.4,0.5,0.8,0.9,1c0.4,0.2,0.9,0.4,1.4,0.4c0.6,0,1.2-0.2,1.6-0.5
						c0.4-0.3,0.7-0.7,0.9-1.2h-1c-0.1,0.3-0.3,0.5-0.6,0.7c-0.3,0.2-0.6,0.3-0.9,0.3c-0.5,0-0.9-0.2-1.2-0.5
						c-0.3-0.3-0.5-0.7-0.5-1.3h4.4c0-0.2,0-0.3,0-0.5c0-0.5-0.1-0.9-0.3-1.3C106.8,65.4,106.5,65.1,106.1,64.8z M102.9,67
						c0-0.5,0.2-1,0.5-1.3c0.3-0.3,0.7-0.5,1.2-0.5c0.3,0,0.6,0.1,0.9,0.2c0.3,0.1,0.5,0.3,0.6,0.6c0.2,0.3,0.2,0.6,0.2,0.9H102.9z"
						/>
					<rect x="108.5" y="62.7" class="st0" width="0.9" height="7.4"/>
					<path class="st0" d="M117.4,63.4c-0.4-0.2-0.8-0.3-1.3-0.3h-2.2v6.9h0.9v-2.9h1.3c0.8,0,1.4-0.2,1.8-0.6
						c0.4-0.4,0.6-0.9,0.6-1.5c0-0.4-0.1-0.7-0.3-1C118.1,63.8,117.8,63.6,117.4,63.4z M117.2,66.1c-0.2,0.2-0.6,0.3-1.1,0.3h-1.3
						v-2.6h1.3c0.5,0,0.9,0.1,1.1,0.3c0.2,0.2,0.4,0.6,0.4,1C117.6,65.6,117.5,65.9,117.2,66.1z"/>
					<path class="st0" d="M123.9,65.7c-0.2-0.4-0.4-0.6-0.8-0.9c-0.3-0.2-0.8-0.3-1.2-0.3c-0.5,0-0.9,0.1-1.3,0.3
						c-0.4,0.2-0.7,0.6-0.9,1c-0.2,0.4-0.3,0.9-0.3,1.5c0,0.6,0.1,1,0.3,1.5c0.2,0.4,0.5,0.8,0.9,1c0.4,0.2,0.8,0.4,1.3,0.4
						c0.5,0,0.9-0.1,1.2-0.3c0.4-0.2,0.6-0.5,0.8-0.9v1.1h0.9v-5.5h-0.9V65.7z M123.7,68.4c-0.2,0.3-0.4,0.5-0.7,0.7
						c-0.3,0.2-0.6,0.3-0.9,0.3c-0.3,0-0.6-0.1-0.9-0.3c-0.3-0.2-0.5-0.4-0.7-0.7c-0.2-0.3-0.3-0.7-0.3-1.1c0-0.4,0.1-0.8,0.3-1.1
						c0.2-0.3,0.4-0.5,0.7-0.7c0.3-0.2,0.6-0.2,0.9-0.2c0.3,0,0.6,0.1,0.9,0.2c0.3,0.2,0.5,0.4,0.7,0.7c0.2,0.3,0.3,0.7,0.3,1.1
						C123.9,67.7,123.8,68.1,123.7,68.4z"/>
					<path class="st0" d="M127.2,65.5v-0.9h-0.9v5.5h0.9v-3c0-0.6,0.1-1,0.4-1.3c0.2-0.2,0.6-0.4,1.1-0.4h0.2v-0.9
						C128.1,64.5,127.6,64.8,127.2,65.5z"/>
					<path class="st0" d="M131.3,69.2c-0.1-0.1-0.1-0.3-0.1-0.5v-3.3h1.4v-0.7h-1.4v-1.4h-0.9v1.4h-0.7v0.7h0.7v3.3
						c0,0.5,0.1,0.8,0.4,1.1c0.2,0.2,0.6,0.3,1.1,0.3h0.9v-0.7h-0.8C131.6,69.3,131.4,69.3,131.3,69.2z"/>
					<path class="st0" d="M137.3,64.8c-0.3-0.2-0.7-0.3-1.1-0.3c-0.4,0-0.7,0.1-1.1,0.2c-0.3,0.2-0.6,0.4-0.7,0.7v-0.9h-0.9v5.5h0.9
						V67c0-0.6,0.1-1,0.4-1.3c0.3-0.3,0.6-0.4,1.1-0.4c0.5,0,0.8,0.1,1.1,0.4c0.3,0.3,0.4,0.7,0.4,1.3v3.1h0.9v-3.2
						c0-0.5-0.1-0.9-0.3-1.3C137.9,65.2,137.7,64.9,137.3,64.8z"/>
					<path class="st0" d="M143.6,64.8c-0.4-0.2-0.8-0.3-1.4-0.3c-0.5,0-1,0.1-1.4,0.3c-0.4,0.2-0.7,0.6-1,1
						c-0.2,0.4-0.3,0.9-0.3,1.5c0,0.6,0.1,1.1,0.3,1.5c0.2,0.4,0.5,0.8,0.9,1c0.4,0.2,0.9,0.4,1.4,0.4c0.6,0,1.2-0.2,1.6-0.5
						c0.4-0.3,0.7-0.7,0.9-1.2h-1c-0.1,0.3-0.3,0.5-0.6,0.7c-0.3,0.2-0.6,0.3-0.9,0.3c-0.5,0-0.9-0.2-1.2-0.5
						c-0.3-0.3-0.5-0.7-0.5-1.3h4.4c0-0.2,0-0.3,0-0.5c0-0.5-0.1-0.9-0.3-1.3C144.3,65.4,144,65.1,143.6,64.8z M140.4,67
						c0-0.5,0.2-1,0.5-1.3c0.3-0.3,0.7-0.5,1.2-0.5c0.3,0,0.6,0.1,0.9,0.2c0.3,0.1,0.5,0.3,0.6,0.6c0.2,0.3,0.2,0.6,0.2,0.9H140.4z"
						/>
					<path class="st0" d="M146.9,65.5v-0.9H146v5.5h0.9v-3c0-0.6,0.1-1,0.4-1.3c0.2-0.2,0.6-0.4,1.1-0.4h0.2v-0.9
						C147.7,64.5,147.2,64.8,146.9,65.5z"/>
				</g>
			</g>
		</g>
		<g>
			<g>
				<path class="st2" d="M243.8,41.1L243.8,41.1v3.6h18.3v-3.6H243.8z M272.3,41.1L272.3,41.1v3.6h18.1v-3.6H272.3z M268.8,37.5
					L268.8,37.5h25.1v10.8h-21.6v3.6h21.6v3.5h-25.1V37.5z M354.5,51.9L354.5,51.9v-3.6h-18.2v3.6H354.5z M358,55.4L358,55.4h-25.3
					V44.7h21.7v-3.6h-21.7v-3.6H358V55.4z M297.1,37.5L297.1,37.5h32.4v18H326V41.1H315v14.4h-3.6V41.1h-10.8v14.4h-3.6V37.5z
					 M240.2,37.5h25.4v10.8h-21.8v3.6h21.8v3.5h-25.4V37.5z"/>
				<path d="M294.9,60.9h-0.8v-0.6h0.8v-1.7h0.7v1.7h0.8v0.6h-0.8v3.6h-0.7V60.9z M289.8,64.5v-4.2h0.7V61c0.2-0.3,0.4-0.5,0.6-0.6
					c0.3-0.1,0.5-0.2,0.9-0.2c0.5,0,0.9,0.1,1.1,0.4c0.3,0.3,0.4,0.6,0.4,1.1v2.8h-0.7V62c0-0.4-0.1-0.7-0.3-0.9
					c-0.2-0.2-0.5-0.3-0.8-0.3c-0.2,0-0.4,0-0.6,0.1c-0.2,0.1-0.3,0.2-0.4,0.3c-0.1,0.1-0.2,0.2-0.2,0.4c0,0.1-0.1,0.4-0.1,0.7v2.1
					H289.8z M288.9,62.5h-3.3v0.1c0,0.4,0.1,0.8,0.4,1.1c0.3,0.3,0.6,0.4,1,0.4c0.3,0,0.5-0.1,0.8-0.2c0.2-0.1,0.4-0.4,0.6-0.7
					l0.5,0.4c-0.2,0.4-0.5,0.7-0.8,0.8c-0.3,0.2-0.7,0.3-1.1,0.3c-0.6,0-1.1-0.2-1.5-0.6c-0.4-0.4-0.6-1-0.6-1.6
					c0-0.7,0.2-1.2,0.6-1.6c0.4-0.4,0.9-0.6,1.5-0.6c0.6,0,1.1,0.2,1.5,0.6c0.4,0.4,0.5,0.9,0.5,1.6V62.5z M288.2,61.9
					c0-0.4-0.1-0.6-0.4-0.8c-0.2-0.2-0.5-0.3-0.9-0.3c-0.3,0-0.6,0.1-0.9,0.3c-0.2,0.2-0.4,0.5-0.4,0.8H288.2z M282.6,64.8l-2.1-4.4
					h0.8l1.2,2.9l1.3-2.9h0.8L282.6,64.8z M276.7,64.5v-6.6h3.5v0.7h-2.7v1.9h2.7v0.7h-2.7v2.5h2.7v0.7H276.7z"/>
				<path d="M303.1,64.5l-0.6-0.8c-0.3,0.3-0.6,0.5-0.9,0.7c-0.3,0.2-0.7,0.2-1.1,0.2c-0.6,0-1.1-0.2-1.4-0.5
					c-0.4-0.3-0.5-0.8-0.5-1.4c0-0.4,0.1-0.8,0.4-1.1c0.3-0.3,0.6-0.7,1.1-0.9l-0.3-0.3c-0.1-0.2-0.3-0.3-0.3-0.5
					c-0.1-0.2-0.1-0.4-0.1-0.6c0-0.4,0.1-0.7,0.4-1c0.3-0.3,0.6-0.4,1.1-0.4c0.5,0,0.8,0.1,1.1,0.4c0.3,0.3,0.4,0.6,0.4,1
					c0,0.3-0.1,0.6-0.3,0.9c-0.2,0.3-0.5,0.5-0.9,0.8l1.4,1.7c0.1-0.1,0.2-0.3,0.4-0.5c0.1-0.2,0.3-0.4,0.4-0.6l0.5,0.5
					c-0.1,0.2-0.3,0.4-0.4,0.6c-0.1,0.2-0.3,0.3-0.4,0.5l1.1,1.3H303.1z M300.7,60.4l0.3-0.2c0.2-0.1,0.4-0.3,0.5-0.4
					c0.1-0.2,0.2-0.3,0.2-0.5c0-0.2-0.1-0.4-0.2-0.5c-0.1-0.1-0.3-0.2-0.6-0.2c-0.2,0-0.4,0.1-0.6,0.2c-0.1,0.1-0.2,0.3-0.2,0.6
					c0,0.1,0,0.2,0.1,0.3c0,0.1,0.1,0.2,0.2,0.3L300.7,60.4z M302,63.2l-1.6-1.9l-0.2,0.1c-0.4,0.2-0.6,0.5-0.8,0.7
					c-0.1,0.2-0.2,0.4-0.2,0.7c0,0.4,0.1,0.6,0.3,0.9c0.2,0.2,0.5,0.4,0.9,0.4c0.2,0,0.5-0.1,0.7-0.2
					C301.4,63.6,301.7,63.4,302,63.2z"/>
				<path d="M356.9,60.9h-0.8v-0.6h0.8v-1.7h0.7v1.7h0.8v0.6h-0.8v3.6h-0.7V60.9z M351.9,64.5v-4.2h0.7V61c0.2-0.3,0.4-0.5,0.6-0.6
					c0.3-0.1,0.5-0.2,0.9-0.2c0.5,0,0.9,0.1,1.1,0.4c0.3,0.3,0.4,0.6,0.4,1.1v2.8H355V62c0-0.4-0.1-0.7-0.3-0.9
					c-0.2-0.2-0.5-0.3-0.8-0.3c-0.2,0-0.4,0-0.6,0.1c-0.2,0.1-0.3,0.2-0.4,0.3c-0.1,0.1-0.2,0.2-0.2,0.4c0,0.1-0.1,0.4-0.1,0.7v2.1
					H351.9z M351.1,62.5h-3.3v0.1c0,0.4,0.1,0.8,0.4,1.1c0.3,0.3,0.6,0.4,1,0.4c0.3,0,0.5-0.1,0.8-0.2c0.2-0.1,0.4-0.4,0.6-0.7
					l0.5,0.4c-0.2,0.4-0.5,0.7-0.8,0.8c-0.3,0.2-0.7,0.3-1.1,0.3c-0.6,0-1.1-0.2-1.5-0.6c-0.4-0.4-0.6-1-0.6-1.6
					c0-0.7,0.2-1.2,0.6-1.6c0.4-0.4,0.9-0.6,1.5-0.6c0.6,0,1.1,0.2,1.5,0.6c0.4,0.4,0.5,0.9,0.5,1.6V62.5z M350.4,61.9
					c0-0.4-0.1-0.6-0.4-0.8c-0.2-0.2-0.5-0.3-0.9-0.3c-0.3,0-0.6,0.1-0.9,0.3c-0.2,0.2-0.4,0.5-0.4,0.8H350.4z M345.6,64.5V62
					c0-0.4-0.1-0.7-0.3-0.9c-0.2-0.2-0.4-0.3-0.8-0.3c-0.2,0-0.4,0-0.5,0.1c-0.2,0.1-0.3,0.2-0.4,0.3c-0.1,0.1-0.1,0.2-0.2,0.4
					c0,0.1-0.1,0.4-0.1,0.7v2.1h-0.7V62c0-0.4-0.1-0.7-0.3-0.9c-0.2-0.2-0.4-0.3-0.8-0.3c-0.2,0-0.4,0-0.5,0.1
					c-0.2,0.1-0.3,0.2-0.4,0.3c-0.1,0.1-0.1,0.2-0.2,0.4c0,0.1-0.1,0.4-0.1,0.7v2.1h-0.7v-4.2h0.7V61c0.2-0.3,0.4-0.5,0.6-0.6
					c0.2-0.1,0.5-0.2,0.8-0.2c0.3,0,0.6,0.1,0.9,0.2c0.2,0.1,0.4,0.4,0.5,0.6c0.2-0.3,0.4-0.5,0.6-0.6c0.2-0.1,0.5-0.2,0.8-0.2
					c0.5,0,0.8,0.1,1.1,0.4c0.3,0.3,0.4,0.6,0.4,1.1v2.8H345.6z M335,64.5v-4.2h0.7V61c0.2-0.3,0.4-0.5,0.6-0.6
					c0.3-0.1,0.5-0.2,0.9-0.2c0.5,0,0.9,0.1,1.1,0.4c0.3,0.3,0.4,0.6,0.4,1.1v2.8H338V62c0-0.4-0.1-0.7-0.3-0.9
					c-0.2-0.2-0.5-0.3-0.8-0.3c-0.2,0-0.4,0-0.6,0.1c-0.2,0.1-0.3,0.2-0.4,0.3c-0.1,0.1-0.2,0.2-0.2,0.4c0,0.1-0.1,0.4-0.1,0.7v2.1
					H335z M333,64.5v-4.2h0.7v4.2H333z M332.9,58.3c0-0.1,0.1-0.3,0.2-0.4c0.1-0.1,0.2-0.2,0.4-0.2c0.1,0,0.3,0.1,0.4,0.2
					c0.1,0.1,0.2,0.2,0.2,0.4c0,0.1,0,0.3-0.2,0.4c-0.1,0.1-0.2,0.2-0.4,0.2c-0.1,0-0.3,0-0.4-0.2C332.9,58.6,332.9,58.5,332.9,58.3
					z M331.9,60.3v4.2h-0.7v-0.8c-0.2,0.3-0.4,0.5-0.6,0.7c-0.3,0.2-0.5,0.2-0.9,0.2c-0.6,0-1.1-0.2-1.4-0.6c-0.4-0.4-0.5-1-0.5-1.6
					c0-0.7,0.2-1.2,0.5-1.6c0.4-0.4,0.8-0.6,1.4-0.6c0.3,0,0.6,0.1,0.9,0.2c0.3,0.2,0.5,0.4,0.6,0.7v-0.8H331.9z M331.2,62.5
					c0-0.5-0.1-0.8-0.4-1.1c-0.3-0.3-0.6-0.4-1-0.4c-0.4,0-0.8,0.1-1,0.4c-0.2,0.3-0.4,0.6-0.4,1.1c0,0.5,0.1,0.9,0.4,1.2
					c0.2,0.3,0.6,0.4,1,0.4c0.4,0,0.8-0.1,1-0.4C331.1,63.3,331.2,62.9,331.2,62.5z M326,60.9h-0.8v-0.6h0.8v-1.7h0.7v1.7h0.8v0.6
					h-0.8v3.6H326V60.9z M322.9,64.5v-4.2h0.6v0.9c0.2-0.4,0.4-0.6,0.6-0.8c0.2-0.2,0.5-0.2,0.8-0.2c0.1,0,0.2,0,0.2,0
					c0.1,0,0.2,0,0.2,0.1l-0.2,0.6c-0.1,0-0.2,0-0.2-0.1c-0.1,0-0.1,0-0.2,0c-0.4,0-0.7,0.1-0.8,0.4c-0.2,0.3-0.3,0.7-0.3,1.2v2
					H322.9z M322.1,62.5h-3.3v0.1c0,0.4,0.1,0.8,0.4,1.1c0.3,0.3,0.6,0.4,1,0.4c0.3,0,0.5-0.1,0.8-0.2c0.2-0.1,0.4-0.4,0.6-0.7
					l0.5,0.4c-0.2,0.4-0.5,0.7-0.8,0.8c-0.3,0.2-0.7,0.3-1.1,0.3c-0.6,0-1.1-0.2-1.5-0.6c-0.4-0.4-0.6-1-0.6-1.6
					c0-0.7,0.2-1.2,0.6-1.6c0.4-0.4,0.9-0.6,1.5-0.6c0.6,0,1.1,0.2,1.5,0.6c0.4,0.4,0.5,0.9,0.5,1.6V62.5z M321.4,61.9
					c0-0.4-0.1-0.6-0.4-0.8c-0.2-0.2-0.5-0.3-0.9-0.3c-0.3,0-0.6,0.1-0.9,0.3c-0.2,0.2-0.4,0.5-0.4,0.8H321.4z M316.4,60.9h-0.8
					v-0.6h0.8v-1.7h0.7v1.7h0.8v0.6h-0.8v3.6h-0.7V60.9z M311.4,64.5v-4.2h0.7V61c0.2-0.3,0.4-0.5,0.6-0.6c0.3-0.1,0.5-0.2,0.9-0.2
					c0.5,0,0.9,0.1,1.1,0.4c0.3,0.3,0.4,0.6,0.4,1.1v2.8h-0.7V62c0-0.4-0.1-0.7-0.3-0.9c-0.2-0.2-0.5-0.3-0.8-0.3
					c-0.2,0-0.4,0-0.6,0.1c-0.2,0.1-0.3,0.2-0.4,0.3c-0.1,0.1-0.2,0.2-0.2,0.4c0,0.1-0.1,0.4-0.1,0.7v2.1H311.4z M307,64.5v-6.6h3.5
					v0.7h-2.7v1.9h2.7v0.7h-2.7v2.5h2.7v0.7H307z"/>
				<path d="M310.7,69.3h-0.8v-0.6h0.8v-1.7h0.7v1.7h0.8v0.6h-0.8v3.6h-0.7V69.3z M305.6,72.9v-4.2h0.7v0.6c0.2-0.3,0.4-0.5,0.6-0.6
					c0.3-0.1,0.5-0.2,0.9-0.2c0.5,0,0.9,0.1,1.1,0.4c0.3,0.3,0.4,0.6,0.4,1.1v2.8h-0.7v-2.4c0-0.4-0.1-0.7-0.3-0.9
					c-0.2-0.2-0.5-0.3-0.8-0.3c-0.2,0-0.4,0-0.6,0.1c-0.2,0.1-0.3,0.2-0.4,0.3c-0.1,0.1-0.2,0.2-0.2,0.4c0,0.1-0.1,0.4-0.1,0.7v2.1
					H305.6z M304.7,70.9h-3.3V71c0,0.4,0.1,0.8,0.4,1.1c0.3,0.3,0.6,0.4,1,0.4c0.3,0,0.5-0.1,0.8-0.2c0.2-0.1,0.4-0.4,0.6-0.7
					l0.5,0.4c-0.2,0.4-0.5,0.7-0.8,0.8c-0.3,0.2-0.7,0.3-1.1,0.3c-0.6,0-1.1-0.2-1.5-0.6c-0.4-0.4-0.6-1-0.6-1.6
					c0-0.7,0.2-1.2,0.6-1.6c0.4-0.4,0.9-0.6,1.5-0.6c0.6,0,1.1,0.2,1.5,0.6c0.4,0.4,0.5,0.9,0.5,1.6V70.9z M304,70.4
					c0-0.4-0.1-0.6-0.4-0.8c-0.2-0.2-0.5-0.3-0.9-0.3c-0.3,0-0.6,0.1-0.9,0.3c-0.2,0.2-0.4,0.5-0.4,0.8H304z M299.1,72.9v-2.4
					c0-0.4-0.1-0.7-0.3-0.9c-0.2-0.2-0.4-0.3-0.8-0.3c-0.2,0-0.4,0-0.5,0.1c-0.2,0.1-0.3,0.2-0.4,0.3c-0.1,0.1-0.1,0.2-0.2,0.4
					c0,0.1-0.1,0.4-0.1,0.7v2.1h-0.7v-2.4c0-0.4-0.1-0.7-0.3-0.9c-0.2-0.2-0.4-0.3-0.8-0.3c-0.2,0-0.4,0-0.5,0.1
					c-0.2,0.1-0.3,0.2-0.4,0.3c-0.1,0.1-0.1,0.2-0.2,0.4c0,0.1-0.1,0.4-0.1,0.7v2.1h-0.7v-4.2h0.7v0.6c0.2-0.3,0.4-0.5,0.6-0.6
					c0.2-0.1,0.5-0.2,0.8-0.2c0.3,0,0.6,0.1,0.9,0.2c0.2,0.1,0.4,0.4,0.5,0.6c0.2-0.3,0.4-0.5,0.6-0.6c0.2-0.1,0.5-0.2,0.8-0.2
					c0.5,0,0.8,0.1,1.1,0.4c0.3,0.3,0.4,0.6,0.4,1.1v2.8H299.1z M292.5,70.9h-3.3V71c0,0.4,0.1,0.8,0.4,1.1c0.3,0.3,0.6,0.4,1,0.4
					c0.3,0,0.5-0.1,0.8-0.2c0.2-0.1,0.4-0.4,0.6-0.7l0.5,0.4c-0.2,0.4-0.5,0.7-0.8,0.8c-0.3,0.2-0.7,0.3-1.1,0.3
					c-0.6,0-1.1-0.2-1.5-0.6c-0.4-0.4-0.6-1-0.6-1.6c0-0.7,0.2-1.2,0.6-1.6c0.4-0.4,0.9-0.6,1.5-0.6c0.6,0,1.1,0.2,1.5,0.6
					c0.4,0.4,0.5,0.9,0.5,1.6V70.9z M291.7,70.4c0-0.4-0.1-0.6-0.4-0.8c-0.2-0.2-0.5-0.3-0.9-0.3c-0.3,0-0.6,0.1-0.9,0.3
					c-0.2,0.2-0.4,0.5-0.4,0.8H291.7z M287.5,68.7v4.1c0,0.5,0,0.8-0.1,1c-0.1,0.2-0.2,0.4-0.3,0.5c-0.2,0.2-0.4,0.4-0.7,0.5
					c-0.3,0.1-0.6,0.2-1,0.2c-0.6,0-1.1-0.1-1.5-0.4c-0.4-0.3-0.5-0.7-0.6-1.2h0.8v0.1c0,0.3,0.1,0.6,0.3,0.7
					c0.2,0.2,0.5,0.3,0.9,0.3c0.3,0,0.5,0,0.7-0.1c0.2-0.1,0.4-0.2,0.5-0.4c0.1-0.1,0.1-0.2,0.1-0.4c0-0.1,0-0.3,0-0.6v-0.3v-0.4
					c-0.2,0.3-0.4,0.5-0.6,0.7c-0.3,0.2-0.6,0.2-0.9,0.2c-0.6,0-1.1-0.2-1.4-0.6c-0.4-0.4-0.5-0.9-0.5-1.6c0-0.7,0.2-1.2,0.5-1.6
					c0.4-0.4,0.8-0.6,1.4-0.6c0.3,0,0.6,0.1,0.9,0.2c0.3,0.2,0.5,0.4,0.6,0.7v-0.8H287.5z M286.9,70.8c0-0.5-0.1-0.8-0.4-1.1
					c-0.3-0.3-0.6-0.4-1-0.4c-0.4,0-0.8,0.1-1,0.4c-0.2,0.3-0.4,0.6-0.4,1.1c0,0.5,0.1,0.9,0.4,1.2c0.2,0.3,0.6,0.4,1,0.4
					c0.4,0,0.8-0.1,1-0.4C286.7,71.7,286.9,71.3,286.9,70.8z M282.5,68.7v4.2h-0.7v-0.8c-0.2,0.3-0.4,0.5-0.6,0.7
					c-0.3,0.2-0.5,0.2-0.9,0.2c-0.6,0-1.1-0.2-1.4-0.6c-0.4-0.4-0.5-1-0.5-1.6c0-0.7,0.2-1.2,0.5-1.6c0.4-0.4,0.8-0.6,1.4-0.6
					c0.3,0,0.6,0.1,0.9,0.2c0.3,0.2,0.5,0.4,0.6,0.7v-0.8H282.5z M281.8,70.9c0-0.5-0.1-0.8-0.4-1.1c-0.3-0.3-0.6-0.4-1-0.4
					c-0.4,0-0.8,0.1-1,0.4c-0.2,0.3-0.4,0.6-0.4,1.1c0,0.5,0.1,0.9,0.4,1.2c0.2,0.3,0.6,0.4,1,0.4c0.4,0,0.8-0.1,1-0.4
					C281.7,71.7,281.8,71.3,281.8,70.9z M273.6,72.9v-4.2h0.7v0.6c0.2-0.3,0.4-0.5,0.6-0.6c0.3-0.1,0.5-0.2,0.9-0.2
					c0.5,0,0.9,0.1,1.1,0.4c0.3,0.3,0.4,0.6,0.4,1.1v2.8h-0.7v-2.4c0-0.4-0.1-0.7-0.3-0.9c-0.2-0.2-0.5-0.3-0.8-0.3
					c-0.2,0-0.4,0-0.6,0.1c-0.2,0.1-0.3,0.2-0.4,0.3c-0.1,0.1-0.2,0.2-0.2,0.4c0,0.1-0.1,0.4-0.1,0.7v2.1H273.6z M272.4,68.7v4.2
					h-0.7v-0.8c-0.2,0.3-0.4,0.5-0.6,0.7c-0.3,0.2-0.5,0.2-0.9,0.2c-0.6,0-1.1-0.2-1.4-0.6c-0.4-0.4-0.5-1-0.5-1.6
					c0-0.7,0.2-1.2,0.5-1.6c0.4-0.4,0.8-0.6,1.4-0.6c0.3,0,0.6,0.1,0.9,0.2c0.3,0.2,0.5,0.4,0.6,0.7v-0.8H272.4z M271.7,70.9
					c0-0.5-0.1-0.8-0.4-1.1c-0.3-0.3-0.6-0.4-1-0.4c-0.4,0-0.8,0.1-1,0.4c-0.2,0.3-0.4,0.6-0.4,1.1c0,0.5,0.1,0.9,0.4,1.2
					c0.2,0.3,0.6,0.4,1,0.4c0.4,0,0.8-0.1,1-0.4C271.6,71.7,271.7,71.3,271.7,70.9z M264.1,73.2l-2.1-4.8l-0.8,4.5h-0.8l1.3-6.9
					l2.3,5.5l2.3-5.5l1.3,6.9H267l-0.8-4.5L264.1,73.2z"/>
				<path d="M354,72.9v-4.2h0.7v0.6c0.2-0.3,0.4-0.5,0.6-0.6c0.3-0.1,0.5-0.2,0.9-0.2c0.5,0,0.9,0.1,1.1,0.4
					c0.3,0.3,0.4,0.6,0.4,1.1v2.8h-0.7v-2.4c0-0.4-0.1-0.7-0.3-0.9c-0.2-0.2-0.5-0.3-0.8-0.3c-0.2,0-0.4,0-0.6,0.1
					c-0.2,0.1-0.3,0.2-0.4,0.3c-0.1,0.1-0.2,0.2-0.2,0.4c0,0.1-0.1,0.4-0.1,0.7v2.1H354z M348.6,70.8c0-0.3,0.1-0.6,0.2-0.9
					c0.1-0.3,0.3-0.5,0.5-0.7c0.2-0.2,0.5-0.4,0.7-0.5c0.3-0.1,0.6-0.2,0.9-0.2c0.3,0,0.6,0.1,0.9,0.2c0.3,0.1,0.5,0.3,0.7,0.5
					c0.2,0.2,0.4,0.4,0.5,0.7c0.1,0.3,0.2,0.6,0.2,0.9c0,0.3-0.1,0.6-0.2,0.9c-0.1,0.3-0.3,0.5-0.5,0.7c-0.2,0.2-0.5,0.4-0.7,0.5
					c-0.3,0.1-0.6,0.2-0.9,0.2c-0.3,0-0.6-0.1-0.9-0.2c-0.3-0.1-0.5-0.3-0.7-0.5c-0.2-0.2-0.4-0.5-0.5-0.7
					C348.7,71.4,348.6,71.1,348.6,70.8z M349.4,70.8c0,0.4,0.1,0.8,0.4,1.1c0.3,0.3,0.7,0.5,1.1,0.5c0.4,0,0.8-0.2,1.1-0.5
					c0.3-0.3,0.4-0.7,0.4-1.1c0-0.4-0.1-0.8-0.4-1.1c-0.3-0.3-0.6-0.5-1.1-0.5c-0.4,0-0.8,0.2-1.1,0.5
					C349.5,70,349.4,70.4,349.4,70.8z M347,72.9v-4.2h0.7v4.2H347z M346.8,66.7c0-0.1,0.1-0.3,0.2-0.4c0.1-0.1,0.2-0.2,0.4-0.2
					c0.1,0,0.3,0.1,0.4,0.2c0.1,0.1,0.2,0.2,0.2,0.4c0,0.1,0,0.3-0.2,0.4c-0.1,0.1-0.2,0.2-0.4,0.2c-0.1,0-0.3,0-0.4-0.2
					C346.8,67,346.8,66.9,346.8,66.7z M344.8,69.3h-0.8v-0.6h0.8v-1.7h0.7v1.7h0.8v0.6h-0.8v3.6h-0.7V69.3z M343.5,68.7v4.2h-0.7
					v-0.8c-0.2,0.3-0.4,0.5-0.6,0.7c-0.3,0.2-0.5,0.2-0.9,0.2c-0.6,0-1.1-0.2-1.4-0.6c-0.4-0.4-0.5-1-0.5-1.6c0-0.7,0.2-1.2,0.5-1.6
					c0.4-0.4,0.8-0.6,1.4-0.6c0.3,0,0.6,0.1,0.9,0.2c0.3,0.2,0.5,0.4,0.6,0.7v-0.8H343.5z M342.8,70.9c0-0.5-0.1-0.8-0.4-1.1
					c-0.3-0.3-0.6-0.4-1-0.4c-0.4,0-0.8,0.1-1,0.4c-0.2,0.3-0.4,0.6-0.4,1.1c0,0.5,0.1,0.9,0.4,1.2c0.2,0.3,0.6,0.4,1,0.4
					c0.4,0,0.8-0.1,1-0.4C342.7,71.7,342.8,71.3,342.8,70.9z M337.7,72.9v-4.2h0.7v4.2H337.7z M337.5,66.7c0-0.1,0.1-0.3,0.2-0.4
					c0.1-0.1,0.2-0.2,0.4-0.2c0.1,0,0.3,0.1,0.4,0.2c0.1,0.1,0.2,0.2,0.2,0.4c0,0.1,0,0.3-0.2,0.4c-0.1,0.1-0.2,0.2-0.4,0.2
					c-0.1,0-0.3,0-0.4-0.2C337.5,67,337.5,66.9,337.5,66.7z M336.9,71.9v0.8c-0.2,0.1-0.4,0.2-0.6,0.3c-0.2,0.1-0.5,0.1-0.8,0.1
					c-0.6,0-1.2-0.2-1.5-0.6c-0.4-0.4-0.6-0.9-0.6-1.6c0-0.7,0.2-1.2,0.6-1.6c0.4-0.4,0.9-0.6,1.6-0.6c0.2,0,0.5,0,0.7,0.1
					c0.2,0,0.4,0.1,0.6,0.2v0.8c-0.2-0.1-0.4-0.2-0.6-0.3c-0.2-0.1-0.4-0.1-0.6-0.1c-0.5,0-0.8,0.1-1.1,0.4
					c-0.3,0.3-0.4,0.7-0.4,1.2c0,0.4,0.1,0.8,0.4,1.1c0.3,0.3,0.6,0.4,1.1,0.4c0.2,0,0.4,0,0.6-0.1S336.6,72.1,336.9,71.9z
					 M328.3,70.8c0-0.3,0.1-0.6,0.2-0.9c0.1-0.3,0.3-0.5,0.5-0.7c0.2-0.2,0.5-0.4,0.7-0.5c0.3-0.1,0.6-0.2,0.9-0.2
					c0.3,0,0.6,0.1,0.9,0.2c0.3,0.1,0.5,0.3,0.7,0.5c0.2,0.2,0.4,0.4,0.5,0.7c0.1,0.3,0.2,0.6,0.2,0.9c0,0.3-0.1,0.6-0.2,0.9
					c-0.1,0.3-0.3,0.5-0.5,0.7c-0.2,0.2-0.5,0.4-0.7,0.5c-0.3,0.1-0.6,0.2-0.9,0.2c-0.3,0-0.6-0.1-0.9-0.2c-0.3-0.1-0.5-0.3-0.7-0.5
					c-0.2-0.2-0.4-0.5-0.5-0.7C328.3,71.4,328.3,71.1,328.3,70.8z M329,70.8c0,0.4,0.1,0.8,0.4,1.1c0.3,0.3,0.7,0.5,1.1,0.5
					c0.4,0,0.8-0.2,1.1-0.5c0.3-0.3,0.4-0.7,0.4-1.1c0-0.4-0.1-0.8-0.4-1.1c-0.3-0.3-0.6-0.5-1.1-0.5c-0.4,0-0.8,0.2-1.1,0.5
					C329.2,70,329,70.4,329,70.8z M324.6,72.2l0.6-0.4c0.1,0.2,0.3,0.4,0.4,0.5c0.2,0.1,0.4,0.2,0.6,0.2c0.2,0,0.4-0.1,0.6-0.2
					c0.1-0.1,0.2-0.3,0.2-0.5c0-0.1,0-0.3-0.1-0.4c-0.1-0.1-0.3-0.2-0.5-0.3l-0.1,0c-1-0.3-1.5-0.8-1.5-1.3c0-0.4,0.1-0.7,0.4-0.9
					c0.3-0.2,0.6-0.4,1.1-0.4c0.4,0,0.7,0.1,0.9,0.2c0.3,0.1,0.4,0.3,0.6,0.6l-0.6,0.4c-0.1-0.2-0.2-0.3-0.4-0.4
					c-0.2-0.1-0.4-0.2-0.6-0.2c-0.2,0-0.4,0.1-0.5,0.2c-0.1,0.1-0.2,0.3-0.2,0.4c0,0.3,0.3,0.5,0.8,0.6c0.1,0,0.2,0.1,0.2,0.1
					c0.4,0.1,0.8,0.3,0.9,0.5s0.3,0.4,0.3,0.7c0,0.4-0.1,0.7-0.4,1c-0.3,0.2-0.6,0.4-1.1,0.4c-0.4,0-0.7-0.1-1-0.2
					C325,72.7,324.7,72.5,324.6,72.2z M321,72.2l0.6-0.4c0.1,0.2,0.3,0.4,0.4,0.5c0.2,0.1,0.4,0.2,0.6,0.2c0.2,0,0.4-0.1,0.6-0.2
					c0.1-0.1,0.2-0.3,0.2-0.5c0-0.1,0-0.3-0.1-0.4c-0.1-0.1-0.3-0.2-0.5-0.3l-0.1,0c-1-0.3-1.5-0.8-1.5-1.3c0-0.4,0.1-0.7,0.4-0.9
					c0.3-0.2,0.6-0.4,1.1-0.4c0.4,0,0.7,0.1,0.9,0.2c0.3,0.1,0.4,0.3,0.6,0.6l-0.6,0.4c-0.1-0.2-0.2-0.3-0.4-0.4
					c-0.2-0.1-0.4-0.2-0.6-0.2c-0.2,0-0.4,0.1-0.5,0.2c-0.1,0.1-0.2,0.3-0.2,0.4c0,0.3,0.3,0.5,0.8,0.6c0.1,0,0.2,0.1,0.2,0.1
					c0.4,0.1,0.8,0.3,0.9,0.5s0.3,0.4,0.3,0.7c0,0.4-0.1,0.7-0.4,1c-0.3,0.2-0.6,0.4-1.1,0.4c-0.4,0-0.7-0.1-1-0.2
					C321.4,72.7,321.2,72.5,321,72.2z M318,66l3,6.9h-0.9l-0.9-2h-2.6l-0.9,2H315L318,66z M318,67.7l-1.1,2.4h2.1L318,67.7z"/>
			</g>
		</g>
	</g>
	<g>
		<g>
			<path class="st3" d="M539.6,77.6c-2.4,0-4.8,0-7.1,0c-0.2-5.5-0.4-11.1-0.6-16.6c-0.1,0-0.1,0-0.2,0c0-0.9,0-1.9,0-2.8
				c2.9,0,5.9,0,8.8,0c0,0.9,0,1.9,0,2.8c-0.1,0-0.2,0-0.3,0C540.1,66.6,539.8,72.1,539.6,77.6z"/>
			<rect x="531.3" y="26.9" class="st3" width="9.1" height="30.7"/>
			<rect x="532.8" y="87.6" class="st3" width="6.3" height="6.9"/>
		</g>
		<g>
			<polygon points="510.5,40.4 510.5,47 507.2,47 507.2,40.3 504.1,40.3 504.1,56.5 507.2,56.5 507.2,49.4 510.5,49.4 510.5,56.5 
				513.7,56.5 513.7,40.4 			"/>
			<polygon points="502.6,40.4 494.5,40.4 494.5,42.8 496.9,42.8 496.9,56.5 500.1,56.5 500.1,42.8 502.6,42.8 			"/>
			<polygon points="523.7,42.8 523.7,40.4 519.3,40.4 517.4,40.4 516.1,40.4 516.1,56.5 517.4,56.5 519.3,56.5 523.7,56.5 
				523.7,54.1 519.3,54.1 519.3,49.4 523.6,49.4 523.6,47 519.3,47 519.3,42.8 			"/>
		</g>
		<g>
			<path d="M525.5,86.2h-1.4v-8.1h3.2v1.2h-1.7v2.1h1.7v1.2h-1.7V86.2z"/>
			<path d="M532.4,86.2H531l-0.2-1.7h-1.4l-0.2,1.7h-1.4l1.2-8.1h2.4L532.4,86.2z M530.6,83.3l-0.5-4.1l-0.6,4.1H530.6z"/>
			<path d="M536,82.9h1.4v1.5c0,1.3-0.8,2-2.2,2c-1.3,0-2.2-0.7-2.2-2V80c0-1.3,0.9-2,2.2-2c1.4,0,2.2,0.7,2.2,2v1.2H536v-1
				c0-0.7-0.3-1-0.8-1c-0.5,0-0.8,0.4-0.8,1v3.9c0,0.7,0.3,1,0.8,1c0.5,0,0.8-0.4,0.8-1V82.9z"/>
			<path d="M540.6,86.2h-1.4v-6.9H538v-1.2h3.7v1.2h-1.1V86.2z"/>
			<path d="M542.4,84.4V80c0-1.3,0.9-2,2.2-2c1.4,0,2.2,0.7,2.2,2v4.4c0,1.3-0.8,2-2.2,2C543.2,86.4,542.4,85.7,542.4,84.4z
				 M545.3,80.2c0-0.7-0.3-1-0.8-1c-0.5,0-0.8,0.4-0.8,1v3.9c0,0.7,0.3,1,0.8,1c0.5,0,0.8-0.4,0.8-1V80.2z"/>
			<path d="M550.8,86.2c-0.1-0.2-0.1-0.7-0.1-1.5v-1.2c0-0.5-0.2-0.8-0.6-0.8h-0.9v3.5h-1.4v-8.1h2.8c0.7,0,1.1,0.2,1.3,0.6
				c0.2,0.4,0.3,0.7,0.3,1.3v0.3c0,0.5,0,0.7-0.2,1.2c-0.1,0.4-0.5,0.7-1,0.7c0.4,0,0.7,0.2,0.9,0.4c0.1,0.1,0.1,0.2,0.2,0.4
				c0.1,0.3,0.1,0.5,0.1,0.9v1.2c0,0.6,0,1,0.1,1.1H550.8z M550.7,80.2c0-0.6-0.2-0.9-0.7-0.9h-0.9v2.2h0.9c0.5,0,0.6-0.2,0.6-0.8
				V80.2z"/>
		</g>
		<g>
			<polygon class="st4" points="540.4,58.3 531.8,58.3 531.8,60.9 534.4,60.9 534.4,76.4 537.8,76.4 537.8,60.9 540.4,60.9 			"/>
			<polygon points="548.7,58.3 548.7,65.7 545.1,65.7 545.1,58.2 541.7,58.2 541.7,76.4 545.1,76.4 545.1,69.1 548.7,69.1 
				548.7,76.4 552,76.4 552,58.3 			"/>
			<path d="M506.1,72.2c0,2.9-2,4.5-5.1,4.5c-3.2,0-5.1-1.7-5.1-4.5v-2.3h3.4v1.7c0,1.6,0.6,2.4,1.8,2.4c1.2,0,1.7-0.7,1.7-2.4V71
				c0-1.1-1.1-1.9-2.4-2.5c-0.7-0.3-1.4-0.6-2-0.9c-1.4-0.7-2.4-2-2.4-3.8v-1.4c0-2.7,1.9-4.5,5.1-4.5c3.2,0,5.2,1.7,5.2,4.5v1.8
				h-3.4V63c0-1.6-0.6-2.3-1.8-2.3c-1.2,0-1.8,0.8-1.8,2.3v0.3c0,1.7,1.7,2.1,3.4,2.8c0.6,0.3,1.2,0.5,1.7,0.9
				c1,0.6,1.8,1.9,1.8,3.6V72.2z"/>
			<path d="M507.9,72.2v-9.8c0-2.9,2-4.5,5.1-4.5c3.2,0,5.1,1.7,5.1,4.5v9.8c0,2.9-1.9,4.5-5.1,4.5
				C509.9,76.8,507.9,75.1,507.9,72.2z M514.8,63c0-1.6-0.6-2.3-1.8-2.3c-1.2,0-1.8,0.8-1.8,2.3v8.6c0,1.6,0.6,2.3,1.8,2.3
				c1.2,0,1.8-0.8,1.8-2.3V63z"/>
			<path d="M527.1,58.2h3.4v14c0,2.9-1.9,4.5-5.1,4.5c-3.1,0-5.1-1.7-5.1-4.5v-14h3.4v13.4c0,1.6,0.6,2.3,1.8,2.3
				c1.2,0,1.8-0.8,1.8-2.3V58.2z"/>
		</g>
	</g>
</g>
</svg>
