<svg xmlns="http://www.w3.org/2000/svg" xmlns:xlink="http://www.w3.org/1999/xlink" width="512" zoomAndPan="magnify" viewBox="0 0 384 383.999986" height="512" preserveAspectRatio="xMidYMid meet" version="1.0"><defs><clipPath id="50d982c598"><path d="M 94.5 265 L 289.5 265 L 289.5 342 L 94.5 342 Z M 94.5 265 " clip-rule="nonzero"/></clipPath></defs><g clip-path="url(#50d982c598)"><path fill="#785eff" d="M 228.066406 265.195312 C 227.253906 266.742188 226.449219 268.277344 225.640625 269.800781 C 260.082031 274.863281 284.488281 287.464844 284.488281 302.226562 C 284.488281 321.457031 243.082031 337.046875 192 337.046875 C 140.921875 337.046875 99.515625 321.457031 99.515625 302.226562 C 99.515625 287.464844 123.921875 274.863281 158.359375 269.800781 C 157.554688 268.277344 156.746094 266.742188 155.933594 265.195312 C 122.304688 270.414062 94.574219 283.03125 94.574219 302.226562 C 94.574219 328.050781 144.773438 341.988281 192 341.988281 C 239.230469 341.988281 289.425781 328.050781 289.425781 302.226562 C 289.425781 283.03125 261.695312 270.414062 228.066406 265.195312 Z M 228.066406 265.195312 " fill-opacity="1" fill-rule="nonzero"/></g><path fill="#785eff" d="M 192 42 C 146.15625 42 108.988281 79.164062 108.988281 125.011719 C 108.988281 149.945312 133.535156 202.433594 155.933594 245.144531 C 156.746094 246.695312 157.554688 248.226562 158.359375 249.75 C 161.015625 254.765625 163.628906 259.632812 166.152344 264.269531 C 167.015625 265.855469 167.867188 267.414062 168.707031 268.949219 C 173.125 277.003906 177.203125 284.277344 180.667969 290.371094 C 181.441406 291.726562 182.183594 293.027344 182.890625 294.265625 C 188.476562 304.027344 192 309.929688 192 309.929688 C 192 309.929688 195.523438 304.027344 201.109375 294.265625 C 201.820312 293.027344 202.5625 291.730469 203.332031 290.371094 C 206.796875 284.277344 210.878906 277.003906 215.296875 268.949219 C 216.136719 267.417969 216.988281 265.859375 217.851562 264.269531 C 220.371094 259.632812 222.988281 254.765625 225.640625 249.75 C 226.449219 248.226562 227.257812 246.695312 228.066406 245.144531 C 250.464844 202.433594 275.011719 149.945312 275.011719 125.011719 C 275.011719 79.164062 237.847656 42 192 42 Z M 192 167.003906 C 190.625 167.003906 189.25 166.933594 187.878906 166.800781 C 186.503906 166.664062 185.144531 166.464844 183.792969 166.195312 C 182.441406 165.925781 181.105469 165.589844 179.789062 165.191406 C 178.46875 164.792969 177.171875 164.328125 175.898438 163.800781 C 174.625 163.273438 173.382812 162.683594 172.167969 162.035156 C 170.953125 161.386719 169.769531 160.675781 168.625 159.910156 C 167.480469 159.144531 166.375 158.328125 165.308594 157.453125 C 164.242188 156.578125 163.222656 155.652344 162.25 154.679688 C 161.273438 153.707031 160.351562 152.683594 159.476562 151.621094 C 158.601562 150.554688 157.78125 149.449219 157.015625 148.304688 C 156.25 147.15625 155.542969 145.976562 154.894531 144.761719 C 154.246094 143.546875 153.65625 142.300781 153.128906 141.03125 C 152.601562 139.757812 152.136719 138.460938 151.738281 137.140625 C 151.335938 135.824219 151.003906 134.488281 150.734375 133.136719 C 150.464844 131.785156 150.265625 130.421875 150.128906 129.050781 C 149.992188 127.679688 149.925781 126.304688 149.925781 124.929688 C 149.925781 123.550781 149.992188 122.175781 150.128906 120.804688 C 150.265625 119.433594 150.464844 118.070312 150.734375 116.71875 C 151.003906 115.367188 151.335938 114.03125 151.738281 112.714844 C 152.136719 111.394531 152.601562 110.097656 153.128906 108.828125 C 153.65625 107.554688 154.246094 106.308594 154.894531 105.09375 C 155.542969 103.878906 156.25 102.699219 157.015625 101.550781 C 157.78125 100.40625 158.601562 99.300781 159.476562 98.234375 C 160.351562 97.171875 161.273438 96.152344 162.25 95.175781 C 163.222656 94.203125 164.242188 93.277344 165.308594 92.402344 C 166.375 91.527344 167.480469 90.710938 168.625 89.945312 C 169.769531 89.179688 170.953125 88.46875 172.167969 87.820312 C 173.382812 87.171875 174.625 86.582031 175.898438 86.054688 C 177.171875 85.527344 178.46875 85.066406 179.789062 84.664062 C 181.105469 84.265625 182.441406 83.929688 183.792969 83.660156 C 185.144531 83.390625 186.503906 83.191406 187.878906 83.054688 C 189.25 82.921875 190.625 82.851562 192 82.851562 C 193.378906 82.851562 194.753906 82.921875 196.125 83.054688 C 197.496094 83.191406 198.859375 83.390625 200.210938 83.660156 C 201.5625 83.929688 202.894531 84.265625 204.214844 84.664062 C 205.535156 85.066406 206.828125 85.527344 208.101562 86.054688 C 209.375 86.582031 210.621094 87.171875 211.835938 87.820312 C 213.050781 88.46875 214.230469 89.179688 215.375 89.945312 C 216.523438 90.710938 217.628906 91.527344 218.691406 92.402344 C 219.757812 93.277344 220.777344 94.203125 221.753906 95.175781 C 222.726562 96.152344 223.652344 97.171875 224.527344 98.234375 C 225.398438 99.300781 226.21875 100.40625 226.984375 101.550781 C 227.75 102.699219 228.457031 103.878906 229.109375 105.09375 C 229.757812 106.308594 230.347656 107.554688 230.875 108.828125 C 231.402344 110.097656 231.863281 111.394531 232.265625 112.714844 C 232.664062 114.03125 233 115.367188 233.269531 116.71875 C 233.535156 118.070312 233.738281 119.433594 233.875 120.804688 C 234.007812 122.175781 234.078125 123.550781 234.074219 124.929688 C 234.078125 126.304688 234.007812 127.679688 233.875 129.050781 C 233.738281 130.421875 233.535156 131.785156 233.269531 133.136719 C 233 134.488281 232.664062 135.824219 232.265625 137.140625 C 231.863281 138.460938 231.402344 139.757812 230.875 141.03125 C 230.347656 142.300781 229.757812 143.546875 229.109375 144.761719 C 228.457031 145.976562 227.75 147.15625 226.984375 148.304688 C 226.21875 149.449219 225.398438 150.554688 224.527344 151.621094 C 223.652344 152.683594 222.726562 153.703125 221.753906 154.679688 C 220.777344 155.652344 219.757812 156.578125 218.695312 157.453125 C 217.628906 158.328125 216.523438 159.144531 215.375 159.910156 C 214.230469 160.675781 213.050781 161.386719 211.835938 162.035156 C 210.621094 162.683594 209.375 163.273438 208.101562 163.800781 C 206.828125 164.328125 205.535156 164.792969 204.214844 165.191406 C 202.894531 165.589844 201.5625 165.925781 200.210938 166.195312 C 198.859375 166.464844 197.496094 166.664062 196.125 166.800781 C 194.753906 166.933594 193.378906 167.003906 192 167.003906 Z M 192 167.003906 " fill-opacity="1" fill-rule="nonzero"/></svg>