<svg xmlns="http://www.w3.org/2000/svg" xmlns:xlink="http://www.w3.org/1999/xlink" width="512" zoomAndPan="magnify" viewBox="0 0 384 383.999986" height="512" preserveAspectRatio="xMidYMid meet" version="1.0"><defs><clipPath id="c26e5821c1"><path d="M 42 78 L 342 78 L 342 306 L 42 306 Z M 42 78 " clip-rule="nonzero"/></clipPath></defs><g clip-path="url(#c26e5821c1)"><path fill="#765afd" d="M 202.425781 190.753906 C 196.484375 196.019531 187.523438 196.019531 181.585938 190.757812 L 79.585938 100.308594 L 304.421875 100.308594 Z M 242.210938 199.214844 L 227.019531 215.414062 L 299.871094 283.738281 L 83.3125 283.738281 L 152.457031 215.132812 L 136.820312 199.367188 L 64.21875 271.40625 L 64.21875 116.355469 L 166.851562 207.367188 C 173.785156 213.519531 182.722656 216.910156 192.003906 216.910156 C 201.289062 216.910156 210.222656 213.519531 217.160156 207.367188 L 319.796875 116.351562 L 319.796875 271.980469 Z M 308.84375 78.101562 L 75.167969 78.101562 C 56.882812 78.101562 42.011719 92.976562 42.011719 111.261719 L 42.011719 272.789062 C 42.011719 291.070312 56.882812 305.945312 75.167969 305.945312 L 308.84375 305.945312 C 327.128906 305.945312 342.003906 291.070312 342.003906 272.789062 L 342.003906 111.261719 C 342.003906 92.976562 327.128906 78.101562 308.84375 78.101562 " fill-opacity="1" fill-rule="nonzero"/></g></svg>