<svg xmlns="http://www.w3.org/2000/svg" xmlns:xlink="http://www.w3.org/1999/xlink" width="512" zoomAndPan="magnify" viewBox="0 0 384 383.999986" height="512" preserveAspectRatio="xMidYMid meet" version="1.0"><defs><clipPath id="4b520fb8c2"><path d="M 168 42 L 205 42 L 205 146 L 168 146 Z M 168 42 " clip-rule="nonzero"/></clipPath></defs><path fill="#765afd" d="M 327.269531 295.855469 C 317.710938 244.707031 289.128906 208.875 240.410156 190.113281 C 229.976562 186.097656 218.484375 184.847656 207.460938 182.371094 C 201.914062 181.117188 201.914062 181.140625 202.480469 174.085938 C 205.949219 173.824219 209.488281 173.542969 212.816406 173.28125 C 214.519531 167.757812 213.714844 163.699219 209.679688 160.394531 C 204.0625 155.816406 184.683594 155.578125 179.820312 160.773438 C 177.765625 162.992188 176.703125 166.816406 176.585938 169.953125 C 176.46875 173.1875 180.246094 172.480469 182.394531 173.542969 C 184.519531 174.582031 185.933594 177.058594 187.679688 178.898438 C 187.351562 179.632812 187.019531 180.386719 186.6875 181.117188 C 152.039062 185.910156 120.976562 198.371094 96.265625 223.699219 C 71.386719 249.097656 57.082031 279.355469 55.078125 315.894531 C 146.824219 315.894531 237.957031 315.894531 329.9375 315.894531 C 328.996094 308.695312 328.476562 302.203125 327.269531 295.855469 Z M 160.960938 203.164062 C 128.71875 223.441406 111.820312 253.699219 104.40625 290.074219 C 101.480469 304.46875 102.96875 302.300781 89.609375 302.582031 C 84.558594 302.699219 79.507812 302.605469 73.933594 302.605469 C 77.59375 258.585938 126.640625 202.457031 164.902344 198.65625 C 163.203125 200.664062 162.332031 202.316406 160.960938 203.164062 Z M 160.960938 203.164062 " fill-opacity="1" fill-rule="nonzero"/><path fill="#765afd" d="M 341.292969 328.378906 C 339.074219 328.167969 337.421875 327.863281 335.769531 327.863281 C 243.382812 327.910156 151 327.957031 58.640625 328.027344 C 54.675781 328.027344 50.6875 327.765625 46.746094 328.003906 C 42.378906 328.238281 40.84375 330.976562 42.921875 334.917969 C 45.09375 339.097656 47.949219 342.09375 53.496094 341.90625 C 64.257812 341.527344 75.019531 341.742188 85.808594 341.714844 C 165.164062 341.597656 244.492188 341.503906 323.847656 341.339844 C 329.417969 341.316406 334.964844 340.65625 340.488281 340.300781 C 341.125 337.042969 341.667969 334.871094 341.929688 332.628906 C 342.023438 331.519531 341.621094 330.386719 341.292969 328.378906 Z M 341.292969 328.378906 " fill-opacity="1" fill-rule="nonzero"/><g clip-path="url(#4b520fb8c2)"><path fill="#765afd" d="M 186.3125 107.78125 C 192.402344 116.679688 194.949219 126.050781 190.960938 136.554688 C 190.015625 139.035156 189.496094 141.652344 188.765625 144.203125 C 189.378906 144.535156 190.015625 144.886719 190.632812 145.21875 C 192.660156 142.714844 195.070312 140.449219 196.648438 137.710938 C 202.125 128.339844 206.679688 118.972656 202.738281 107.359375 C 199.835938 98.765625 194.359375 92.085938 189.425781 84.910156 C 181.285156 73.109375 177.222656 60.742188 184.1875 46.792969 C 184.777344 45.613281 184.519531 43.984375 184.707031 41.976562 C 169.601562 51.914062 163.816406 74.574219 173.636719 88.734375 C 177.980469 95.035156 181.992188 101.503906 186.3125 107.78125 Z M 186.3125 107.78125 " fill-opacity="1" fill-rule="nonzero"/></g><path fill="#765afd" d="M 229.625 110.496094 C 236.019531 118.640625 238.996094 127.207031 233.777344 137.167969 C 233.449219 137.804688 233.730469 138.75 233.730469 140.542969 C 245.011719 130.9375 248.316406 116.679688 240.316406 104.761719 C 238.097656 101.457031 235.808594 98.222656 233.753906 94.847656 C 230.023438 88.664062 226.980469 82.363281 230.378906 74.855469 C 230.992188 73.488281 230.191406 71.480469 230 69.214844 C 218.648438 79.058594 218.339844 94.636719 224.359375 102.800781 C 226.179688 105.304688 227.710938 108.066406 229.625 110.496094 Z M 229.625 110.496094 " fill-opacity="1" fill-rule="nonzero"/><path fill="#765afd" d="M 144.0625 114.296875 C 147.8125 119.914062 150.128906 125.769531 147.789062 132.683594 C 147.152344 134.597656 147.246094 136.746094 146.777344 140.664062 C 149.253906 138.539062 150.433594 137.855469 151.164062 136.839844 C 158.363281 127.113281 159.449219 117.742188 150.835938 102.875 C 148.734375 99.238281 146.328125 95.746094 143.96875 92.273438 C 140.472656 87.128906 138.5625 81.84375 141.277344 75.613281 C 141.960938 74.054688 141.652344 72.046875 141.867188 69.664062 C 131.03125 77.828125 128.765625 90.105469 135.5625 101.621094 C 138.183594 106.011719 141.253906 110.074219 144.0625 114.296875 Z M 144.0625 114.296875 " fill-opacity="1" fill-rule="nonzero"/></svg>