<svg xmlns="http://www.w3.org/2000/svg" xmlns:xlink="http://www.w3.org/1999/xlink" width="512" zoomAndPan="magnify" viewBox="0 0 384 383.999986" height="512" preserveAspectRatio="xMidYMid meet" version="1.0"><path fill="#765afd" d="M 338.289062 262.230469 C 340.480469 268.082031 341.757812 274.367188 341.949219 280.945312 C 341.996094 281.570312 341.996094 282.195312 341.996094 282.847656 C 341.996094 315.503906 315.503906 342 282.84375 342 C 149.828125 342 42 234.171875 42 101.152344 C 42 68.496094 68.492188 42 101.152344 42 C 101.800781 42 102.429688 42 103.054688 42.046875 C 109.628906 42.242188 115.941406 43.519531 121.792969 45.710938 L 144 141.855469 C 144 141.902344 143.972656 141.925781 143.925781 141.953125 L 103.199219 160.253906 L 103.078125 160.304688 C 121.769531 217.214844 166.78125 262.230469 223.695312 280.921875 L 223.742188 280.800781 L 242.070312 240.046875 L 338.289062 262.230469 " fill-opacity="1" fill-rule="nonzero"/></svg>