<svg xmlns="http://www.w3.org/2000/svg" xmlns:xlink="http://www.w3.org/1999/xlink" width="512" zoomAndPan="magnify" viewBox="0 0 384 383.999986" height="512" preserveAspectRatio="xMidYMid meet" version="1.0"><defs><clipPath id="a6434077e7"><path d="M 63.5625 187.132812 L 320.390625 187.132812 L 320.390625 341.523438 L 63.5625 341.523438 Z M 63.5625 187.132812 " clip-rule="nonzero"/></clipPath></defs><path fill="#765afd" d="M 117.875 116.558594 C 117.875 75.632812 151.046875 42.457031 191.972656 42.457031 C 232.898438 42.457031 266.078125 75.632812 266.078125 116.558594 C 266.078125 157.480469 232.898438 190.660156 191.972656 190.660156 C 151.046875 190.660156 117.875 157.480469 117.875 116.558594 " fill-opacity="1" fill-rule="nonzero"/><g clip-path="url(#a6434077e7)"><path fill="#765afd" d="M 319.332031 301 L 308.765625 260.273438 C 300.152344 227.082031 276.910156 200.757812 247.03125 187.46875 C 231.824219 199.296875 212.726562 206.355469 191.972656 206.355469 C 171.21875 206.355469 152.125 199.296875 136.917969 187.46875 C 107.039062 200.757812 83.796875 227.082031 75.183594 260.273438 L 64.617188 301 C 59.296875 321.511719 74.777344 341.519531 95.964844 341.519531 L 287.984375 341.519531 C 309.175781 341.519531 324.652344 321.511719 319.332031 301 " fill-opacity="1" fill-rule="nonzero"/></g></svg>