<svg xmlns="http://www.w3.org/2000/svg" xmlns:xlink="http://www.w3.org/1999/xlink" width="512" zoomAndPan="magnify" viewBox="0 0 384 383.999986" height="512" preserveAspectRatio="xMidYMid meet" version="1.0"><defs><clipPath id="8bd312d634"><path d="M 42 129 L 125 129 L 125 255 L 42 255 Z M 42 129 " clip-rule="nonzero"/></clipPath><clipPath id="fc1c2ec1dd"><path d="M 140 248 L 244 248 L 244 342 L 140 342 Z M 140 248 " clip-rule="nonzero"/></clipPath></defs><path fill="#785eff" d="M 160.019531 45.65625 C 159.042969 45.863281 158.074219 46.109375 157.101562 46.339844 C 155.214844 46.78125 153.324219 47.214844 151.460938 47.722656 C 150.0625 48.109375 148.683594 48.566406 147.289062 48.992188 C 145.488281 49.550781 143.683594 50.097656 141.902344 50.71875 C 140.511719 51.207031 139.144531 51.75 137.765625 52.28125 C 136.035156 52.945312 134.308594 53.605469 132.605469 54.332031 C 131.234375 54.917969 129.890625 55.550781 128.539062 56.179688 C 126.882812 56.945312 125.226562 57.71875 123.601562 58.542969 C 122.261719 59.226562 120.953125 59.945312 119.632812 60.667969 C 118.042969 61.539062 116.460938 62.421875 114.902344 63.34375 C 113.613281 64.117188 112.34375 64.917969 111.074219 65.730469 C 109.550781 66.703125 108.035156 67.691406 106.542969 68.722656 C 105.304688 69.578125 104.082031 70.460938 102.867188 71.359375 C 101.414062 72.425781 99.980469 73.523438 98.558594 74.648438 C 97.371094 75.59375 96.199219 76.550781 95.042969 77.53125 C 93.65625 78.695312 92.296875 79.898438 90.957031 81.117188 C 89.839844 82.136719 88.730469 83.164062 87.640625 84.21875 C 86.332031 85.488281 85.046875 86.785156 83.78125 88.101562 C 82.722656 89.199219 81.683594 90.296875 80.660156 91.425781 C 79.433594 92.785156 78.242188 94.1875 77.054688 95.59375 C 76.074219 96.757812 75.101562 97.925781 74.160156 99.125 C 73.007812 100.578125 71.902344 102.082031 70.800781 103.585938 C 69.902344 104.8125 69.007812 106.035156 68.144531 107.289062 C 67.074219 108.855469 66.054688 110.460938 65.042969 112.070312 C 64.234375 113.34375 63.421875 114.613281 62.648438 115.917969 C 62.40625 116.332031 62.1875 116.765625 61.945312 117.179688 C 80.460938 123.613281 102.542969 128.550781 126.421875 131.792969 C 132.683594 94.015625 144.660156 63.46875 160.019531 45.65625 Z M 160.019531 45.65625 " fill-opacity="1" fill-rule="nonzero"/><path fill="#785eff" d="M 243.351562 133.476562 C 234.125 77.253906 212.371094 42.289062 191.703125 42.289062 C 171.027344 42.289062 149.28125 77.253906 140.054688 133.476562 C 173.179688 136.992188 210.269531 136.992188 243.351562 133.476562 Z M 243.351562 133.476562 " fill-opacity="1" fill-rule="nonzero"/><g clip-path="url(#8bd312d634)"><path fill="#785eff" d="M 121.667969 192.207031 C 121.667969 175.910156 122.65625 160.253906 124.46875 145.496094 C 98.898438 142.019531 75.332031 136.550781 55.542969 129.488281 C 46.421875 149.125 41.75 170.179688 41.75 192.207031 C 41.75 214.242188 46.421875 235.296875 55.542969 254.925781 C 75.324219 247.863281 98.882812 242.394531 124.46875 238.910156 C 122.65625 224.160156 121.667969 208.503906 121.667969 192.207031 Z M 121.667969 192.207031 " fill-opacity="1" fill-rule="nonzero"/></g><path fill="#785eff" d="M 321.441406 117.164062 C 321.199219 116.746094 320.980469 116.308594 320.730469 115.890625 C 319.972656 114.605469 319.171875 113.359375 318.378906 112.101562 C 317.351562 110.46875 316.316406 108.835938 315.226562 107.253906 C 314.386719 106.019531 313.503906 104.828125 312.621094 103.628906 C 311.503906 102.097656 310.371094 100.574219 309.207031 99.089844 C 308.28125 97.917969 307.324219 96.777344 306.371094 95.632812 C 305.164062 94.199219 303.953125 92.777344 302.695312 91.394531 C 301.695312 90.289062 300.675781 89.207031 299.640625 88.136719 C 298.351562 86.792969 297.046875 85.476562 295.710938 84.1875 C 294.640625 83.160156 293.558594 82.144531 292.460938 81.152344 C 291.097656 79.910156 289.710938 78.691406 288.304688 77.503906 C 287.164062 76.542969 286.019531 75.601562 284.855469 74.675781 C 283.421875 73.539062 281.957031 72.425781 280.484375 71.335938 C 279.28125 70.457031 278.082031 69.585938 276.855469 68.738281 C 275.351562 67.695312 273.8125 66.695312 272.277344 65.710938 C 271.027344 64.910156 269.773438 64.117188 268.496094 63.359375 C 266.925781 62.421875 265.316406 61.53125 263.710938 60.648438 C 262.414062 59.9375 261.117188 59.226562 259.800781 58.550781 C 258.160156 57.71875 256.484375 56.9375 254.8125 56.160156 C 253.476562 55.539062 252.144531 54.910156 250.785156 54.332031 C 249.074219 53.601562 247.335938 52.9375 245.601562 52.269531 C 244.234375 51.746094 242.867188 51.199219 241.488281 50.71875 C 239.710938 50.097656 237.902344 49.542969 236.101562 48.992188 C 234.71875 48.566406 233.335938 48.109375 231.929688 47.722656 C 230.070312 47.207031 228.179688 46.777344 226.296875 46.339844 C 225.324219 46.109375 224.351562 45.863281 223.371094 45.65625 C 238.730469 63.46875 250.710938 94.019531 256.953125 131.785156 C 280.855469 128.539062 302.929688 123.601562 321.441406 117.164062 Z M 321.441406 117.164062 " fill-opacity="1" fill-rule="nonzero"/><path fill="#785eff" d="M 138.109375 147.136719 C 136.425781 161.117188 135.460938 176.164062 135.460938 192.207031 C 135.460938 208.25 136.425781 223.296875 138.109375 237.277344 C 172.425781 233.585938 210.945312 233.578125 245.304688 237.277344 C 246.984375 223.296875 247.953125 208.242188 247.953125 192.199219 C 247.953125 176.160156 246.984375 161.109375 245.304688 147.132812 C 228.199219 148.980469 210.242188 149.972656 191.710938 149.972656 C 173.179688 149.980469 155.21875 148.984375 138.109375 147.136719 Z M 138.109375 147.136719 " fill-opacity="1" fill-rule="nonzero"/><path fill="#785eff" d="M 258.9375 145.503906 C 260.75 160.253906 261.738281 175.910156 261.738281 192.207031 C 261.738281 208.503906 260.75 224.160156 258.9375 238.917969 C 284.511719 242.394531 308.074219 247.863281 327.863281 254.925781 C 336.984375 235.296875 341.65625 214.242188 341.65625 192.207031 C 341.65625 170.171875 336.984375 149.117188 327.863281 129.488281 C 308.082031 136.550781 284.523438 142.019531 258.9375 145.503906 Z M 258.9375 145.503906 " fill-opacity="1" fill-rule="nonzero"/><path fill="#785eff" d="M 223.394531 338.75 C 224.34375 338.550781 225.277344 338.308594 226.21875 338.089844 C 228.097656 337.648438 229.980469 337.21875 231.828125 336.710938 C 233.242188 336.324219 234.621094 335.863281 236.019531 335.433594 C 237.808594 334.882812 239.601562 334.34375 241.359375 333.730469 C 242.757812 333.242188 244.136719 332.691406 245.523438 332.160156 C 247.234375 331.503906 248.953125 330.847656 250.632812 330.132812 C 252.015625 329.542969 253.371094 328.898438 254.730469 328.269531 C 256.371094 327.511719 258.015625 326.75 259.621094 325.929688 C 260.964844 325.25 262.289062 324.515625 263.613281 323.792969 C 265.191406 322.929688 266.765625 322.0625 268.308594 321.144531 C 269.605469 320.371094 270.882812 319.558594 272.160156 318.75 C 273.675781 317.785156 275.179688 316.8125 276.65625 315.800781 C 277.902344 314.9375 279.132812 314.046875 280.351562 313.152344 C 281.792969 312.089844 283.226562 311.015625 284.632812 309.902344 C 285.828125 308.957031 287 307.992188 288.164062 307.015625 C 289.539062 305.855469 290.898438 304.683594 292.226562 303.476562 C 293.359375 302.449219 294.476562 301.40625 295.578125 300.34375 C 296.875 299.097656 298.152344 297.820312 299.40625 296.523438 C 300.46875 295.421875 301.523438 294.308594 302.550781 293.171875 C 303.773438 291.828125 304.964844 290.457031 306.136719 289.0625 C 307.125 287.890625 308.101562 286.71875 309.0625 285.511719 C 310.199219 284.070312 311.308594 282.601562 312.398438 281.109375 C 313.308594 279.875 314.214844 278.632812 315.089844 277.367188 C 316.144531 275.835938 317.160156 274.261719 318.160156 272.683594 C 318.984375 271.386719 319.8125 270.097656 320.601562 268.765625 C 320.898438 268.269531 321.164062 267.746094 321.457031 267.25 C 302.929688 260.808594 280.847656 255.867188 256.964844 252.628906 C 250.722656 290.394531 238.746094 320.9375 223.394531 338.75 Z M 223.394531 338.75 " fill-opacity="1" fill-rule="nonzero"/><path fill="#785eff" d="M 61.953125 267.25 C 62.234375 267.738281 62.496094 268.242188 62.78125 268.722656 C 63.59375 270.097656 64.457031 271.441406 65.308594 272.777344 C 66.289062 274.308594 67.277344 275.839844 68.296875 277.332031 C 69.191406 278.628906 70.117188 279.898438 71.046875 281.164062 C 72.125 282.621094 73.207031 284.070312 74.324219 285.484375 C 75.296875 286.703125 76.289062 287.902344 77.296875 289.089844 C 78.457031 290.460938 79.632812 291.820312 80.839844 293.152344 C 81.882812 294.296875 82.945312 295.421875 84.015625 296.53125 C 85.261719 297.820312 86.53125 299.089844 87.820312 300.332031 C 88.925781 301.394531 90.046875 302.441406 91.179688 303.46875 C 92.511719 304.667969 93.855469 305.839844 95.226562 307 C 96.398438 307.984375 97.574219 308.957031 98.773438 309.902344 C 100.171875 311.015625 101.605469 312.089844 103.042969 313.144531 C 104.269531 314.042969 105.496094 314.9375 106.746094 315.800781 C 108.21875 316.820312 109.730469 317.792969 111.242188 318.75 C 112.515625 319.558594 113.785156 320.371094 115.089844 321.144531 C 116.632812 322.0625 118.214844 322.929688 119.792969 323.800781 C 121.109375 324.515625 122.425781 325.25 123.773438 325.929688 C 125.394531 326.75 127.042969 327.515625 128.691406 328.277344 C 130.042969 328.902344 131.386719 329.539062 132.765625 330.125 C 134.460938 330.847656 136.1875 331.503906 137.902344 332.160156 C 139.28125 332.683594 140.648438 333.234375 142.042969 333.722656 C 143.808594 334.34375 145.601562 334.882812 147.394531 335.433594 C 148.785156 335.863281 150.164062 336.316406 151.574219 336.710938 C 153.421875 337.21875 155.304688 337.648438 157.179688 338.089844 C 158.125 338.308594 159.0625 338.550781 160.007812 338.75 C 144.648438 320.929688 132.675781 290.386719 126.433594 252.628906 C 102.542969 255.875 80.46875 260.808594 61.953125 267.25 Z M 61.953125 267.25 " fill-opacity="1" fill-rule="nonzero"/><g clip-path="url(#fc1c2ec1dd)"><path fill="#785eff" d="M 140.054688 250.9375 C 149.28125 307.160156 171.035156 342.125 191.703125 342.125 C 212.378906 342.125 234.125 307.160156 243.351562 250.9375 C 210.226562 247.421875 173.136719 247.421875 140.054688 250.9375 Z M 140.054688 250.9375 " fill-opacity="1" fill-rule="nonzero"/></g></svg>